<?xml version="1.0" encoding="UTF-8"?>
<!-- Generator: visioncortex VTracer -->
<svg id="svg" version="1.1" xmlns="http://www.w3.org/2000/svg" style="display: block;" viewBox="0 0 2500 310"><path d="M0 0 C825 0 1650 0 2500 0 C2500 102.3 2500 204.6 2500 310 C1675 310 850 310 0 310 C0 207.7 0 105.4 0 0 Z " transform="translate(0,0)" style="fill: #FEFEFE;"/><path d="M0 0 C15.57863567 -0.09397452 31.1571932 -0.16423668 46.73604298 -0.20724869 C53.9716681 -0.22776213 61.20711581 -0.25566416 68.44262695 -0.30175781 C74.7585187 -0.34197343 81.07428181 -0.367514 87.39029807 -0.37635398 C90.72618125 -0.38151104 94.0614087 -0.39557869 97.39722633 -0.42292023 C130.89211847 -0.68627911 160.34528951 6.52352421 186 29 C186.81855469 29.71671875 187.63710937 30.4334375 188.48046875 31.171875 C197.32512556 39.49994123 206.15504803 50.7843377 211 62 C211 62.66 211 63.32 211 64 C197.30800796 64.04651884 183.61603499 64.08196803 169.92397976 64.10362434 C163.56493254 64.11402282 157.20593974 64.12810953 150.84692383 64.15087891 C144.70015497 64.17274839 138.55343817 64.18459816 132.40663338 64.18975449 C130.07171879 64.19342507 127.73680677 64.20059214 125.4019146 64.21146011 C109.40488183 64.2828996 94.14471802 63.9573197 78.6875 59.375 C77.80215576 59.11412598 76.91681152 58.85325195 76.00463867 58.58447266 C55.40895473 52.29180727 37.57327109 41.88941487 22 27 C20.4840625 25.824375 20.4840625 25.824375 18.9375 24.625 C11.47949985 17.96040413 5.378299 9.40467303 0 1 C0 0.67 0 0.34 0 0 Z " transform="translate(0,165)" style="fill: #2D4590;"/><path d="M0 0 C-4.39371815 8.43152059 -8.95199467 16.73045448 -13.80541992 24.90625 C-17.65072789 31.38737953 -21.42590515 37.90746426 -25.1875 44.4375 C-25.82139648 45.53739258 -26.45529297 46.63728516 -27.10839844 47.77050781 C-29.07286838 51.17999178 -31.0365626 54.58992132 -33 58 C-37.4395163 65.71050806 -41.88450266 73.4177653 -46.33984375 81.11914062 C-47.84131242 83.72463037 -49.32934527 86.33718397 -50.8125 88.953125 C-67.88335373 118.87114969 -91.76421223 138.86991968 -124.96777344 148.4453125 C-136.80581204 151.67645422 -148.83424115 151.22430133 -161 151 C-157.73565956 144.11142629 -154.03448155 137.558963 -150.14477539 131.01147461 C-146.72432611 125.24924205 -143.37820127 119.44808661 -140.0625 113.625 C-134.89901551 104.56709272 -129.71180168 95.52405793 -124.46240234 86.515625 C-123.43861539 84.75450634 -122.41840321 82.99130694 -121.40087891 81.2265625 C-112.75564451 66.23641159 -103.91548941 52.64808732 -92 40 C-91.10087891 39.00419922 -91.10087891 39.00419922 -90.18359375 37.98828125 C-67.87553754 14.23477863 -32.46756516 -0.59031937 0 0 Z " transform="translate(262,0)" style="fill: #8FB73C;"/><path d="M0 0 C2.86099696 2.53254414 4.46638382 5.35957882 6.3125 8.6875 C7.02081894 9.9512596 7.73056845 11.21421799 8.44140625 12.4765625 C8.84117676 13.1871582 9.24094727 13.89775391 9.65283203 14.62988281 C12.30726547 19.29991539 15.03559756 23.92716422 17.75 28.5625 C23.24041899 37.95579992 28.67441761 47.37916139 34.0546875 56.8359375 C36.06619619 60.37054174 38.09376085 63.89527801 40.1328125 67.4140625 C48.65255641 82.14216675 56.9683511 96.65674346 62 113 C62.29648437 113.96292969 62.59296875 114.92585938 62.8984375 115.91796875 C71.80888854 149.31010458 66.32882314 183.16029944 52 214 C51.34 214 50.68 214 50 214 C43.73046875 203.1328125 37.4609375 192.265625 31.19140625 181.3984375 C30.27572876 179.81131958 30.27572876 179.81131958 29.34155273 178.19213867 C28.10525609 176.049148 26.86909253 173.90608054 25.63305664 171.76293945 C22.48502392 166.30501057 19.33464146 160.84846263 16.1796875 155.39453125 C13.0516543 149.98639914 9.93369651 144.57254584 6.81982422 139.15625 C5.01501528 136.02604206 3.19742414 132.90350837 1.37890625 129.78125 C-7.82094125 113.89387542 -14.36043706 99.04849928 -18 81 C-18.19078125 80.09121094 -18.3815625 79.18242187 -18.578125 78.24609375 C-21.35577202 56.87364306 -18.34667849 35.43663612 -9 16 C-8.68933594 15.34652588 -8.37867188 14.69305176 -8.05859375 14.01977539 C-7.17939605 12.1932233 -6.27758454 10.37760944 -5.375 8.5625 C-5.0759375 7.95212891 -4.776875 7.34175781 -4.46875 6.71289062 C-3.1733845 4.11356207 -2.06837051 2.06837051 0 0 Z " transform="translate(223,95)" style="fill: #1AA4FF;"/><path d="M0 0 C5.754375 -0.04125 11.50875 -0.0825 17.4375 -0.125 C19.23501709 -0.14320801 21.03253418 -0.16141602 22.88452148 -0.18017578 C24.33837589 -0.18602694 25.79223361 -0.19112101 27.24609375 -0.1953125 C27.97735474 -0.20554443 28.70861572 -0.21577637 29.46203613 -0.22631836 C39.58520452 -0.22967096 49.49820427 2.20841886 57.26953125 8.9765625 C64.31032608 16.37005021 67.1810411 23.30319405 67.4375 33.5 C67.12420438 43.53556629 65.19252192 51.70148302 58 59 C45.78193061 69.5088058 33.71562783 69.40885323 18.375 69.1875 C12.31125 69.125625 6.2475 69.06375 0 69 C0 46.23 0 23.46 0 0 Z " transform="translate(1198,166)" style="fill: #141E44;"/><path d="M0 0 C6.55875 -0.0825 13.1175 -0.165 19.875 -0.25 C22.94917236 -0.30462402 22.94917236 -0.30462402 26.08544922 -0.36035156 C46.09749885 -0.57031941 46.09749885 -0.57031941 52.90966797 5.78027344 C58.68036284 12.02049061 59.45259991 17.0794554 59.3125 25.51171875 C58.74974968 31.79341918 56.60821701 35.83073819 51.875 39.9375 C49 42 49 42 47 43 C48.27527351 46.31768659 49.69554121 49.44694296 51.3828125 52.57421875 C51.82753906 53.40630859 52.27226563 54.23839844 52.73046875 55.09570312 C53.66680017 56.83591572 54.60431705 58.57549096 55.54296875 60.31445312 C55.98511719 61.14267578 56.42726563 61.97089844 56.8828125 62.82421875 C57.28902832 63.57791748 57.69524414 64.33161621 58.11376953 65.1081543 C59 67 59 67 59 69 C52.4 69 45.8 69 39 69 C37.37449215 65.91693345 35.74957432 62.83355841 34.125 59.75 C33.66480469 58.87730469 33.20460938 58.00460938 32.73046875 57.10546875 C32.28574219 56.26113281 31.84101562 55.41679688 31.3828125 54.546875 C30.97434082 53.77182617 30.56586914 52.99677734 30.14501953 52.19824219 C29.07472074 50.14345108 28.03611833 48.07223667 27 46 C24.03 45.67 21.06 45.34 18 45 C18 52.92 18 60.84 18 69 C12.06 69 6.12 69 0 69 C0 46.23 0 23.46 0 0 Z " transform="translate(1664,61)" style="fill: #121D43;"/><path d="M0 0 C6.55875 -0.0825 13.1175 -0.165 19.875 -0.25 C22.94917236 -0.30462402 22.94917236 -0.30462402 26.08544922 -0.36035156 C46.09749885 -0.57031941 46.09749885 -0.57031941 52.90966797 5.78027344 C58.68036284 12.02049061 59.45259991 17.0794554 59.3125 25.51171875 C58.74974968 31.79341918 56.60821701 35.83073819 51.875 39.9375 C49 42 49 42 47 43 C48.27527351 46.31768659 49.69554121 49.44694296 51.3828125 52.57421875 C51.82753906 53.40630859 52.27226562 54.23839844 52.73046875 55.09570312 C53.66680017 56.83591572 54.60431705 58.57549096 55.54296875 60.31445312 C55.98511719 61.14267578 56.42726563 61.97089844 56.8828125 62.82421875 C57.28902832 63.57791748 57.69524414 64.33161621 58.11376953 65.1081543 C59 67 59 67 59 69 C52.4 69 45.8 69 39 69 C37.37449215 65.91693345 35.74957432 62.83355841 34.125 59.75 C33.66480469 58.87730469 33.20460938 58.00460938 32.73046875 57.10546875 C32.28574219 56.26113281 31.84101563 55.41679688 31.3828125 54.546875 C30.97434082 53.77182617 30.56586914 52.99677734 30.14501953 52.19824219 C29.07472074 50.14345108 28.03611833 48.07223667 27 46 C24.03 45.67 21.06 45.34 18 45 C18 52.92 18 60.84 18 69 C12.06 69 6.12 69 0 69 C0 46.23 0 23.46 0 0 Z " transform="translate(351,61)" style="fill: #121D43;"/><path d="M0 0 C3.02758123 1.29110819 5.4918722 2.87832089 8 5 C8.33 3.68 8.66 2.36 9 1 C14.28 1 19.56 1 25 1 C25.09925653 8.24076387 25.17165324 15.48112717 25.21972656 22.72241211 C25.23977812 25.18309432 25.26702647 27.64372925 25.30175781 30.10424805 C25.3505588 33.65164898 25.37303428 37.19841707 25.390625 40.74609375 C25.41127014 41.8370787 25.43191528 42.92806366 25.45318604 44.05210876 C25.45536231 51.5463661 24.52723003 58.19666217 19.25909424 63.87718201 C11.3623261 71.13965475 2.1724834 71.34382997 -8.15234375 71.29296875 C-14.80726989 70.78624849 -20.47000868 68.68666088 -26 65 C-25.51675181 59.84535266 -22.81389239 56.18449681 -20 52 C-19.39414063 52.3609375 -18.78828125 52.721875 -18.1640625 53.09375 C-11.98927954 56.51362979 -7.05975973 58.11982396 0 57 C3.36789805 55.79717927 5.26305361 55.00492689 7.375 52.125 C8.09940076 49.66203741 8.14190143 47.55422575 8 45 C7.071875 45.639375 6.14375 46.27875 5.1875 46.9375 C-0.42545962 50.56941505 -5.48590326 50.50178616 -12 50 C-17.76291172 48.63961006 -21.90685355 45.27349574 -25.08105469 40.30932617 C-27.98596955 34.96640703 -28.64481677 30.53333533 -28.5625 24.5 C-28.58634766 23.69691406 -28.61019531 22.89382812 -28.63476562 22.06640625 C-28.61809795 15.2104367 -26.3079394 10.34101879 -21.48632812 5.47119141 C-14.76165252 -0.37367954 -8.75008081 -1.0716508 0 0 Z " transform="translate(2470,79)" style="fill: #141F44;"/><path d="M0 0 C5.28 0 10.56 0 16 0 C16 22.77 16 45.54 16 69 C10.72 69 5.44 69 0 69 C-0.33 67.68 -0.66 66.36 -1 65 C-1.44988281 65.3609375 -1.89976562 65.721875 -2.36328125 66.09375 C-8.156928 70.27353523 -12.96314544 70.95861342 -20 70 C-26.64468495 67.93034403 -31.92943478 64.46821007 -35.375 58.375 C-38.61205878 50.26186534 -38.4955162 39.32734574 -36.15234375 30.98046875 C-33.0527256 24.81275399 -27.52816974 20.17605658 -21 18 C-19.11018505 17.80401919 -17.21139779 17.68821555 -15.3125 17.625 C-13.82169922 17.55152344 -13.82169922 17.55152344 -12.30078125 17.4765625 C-9 18 -9 18 -1 23 C-0.67 15.41 -0.34 7.82 0 0 Z " transform="translate(738,166)" style="fill: #131E44;"/><path d="M0 0 C5.28 0 10.56 0 16 0 C16 22.77 16 45.54 16 69 C10.72 69 5.44 69 0 69 C-0.33 67.68 -0.66 66.36 -1 65 C-1.44988281 65.3609375 -1.89976563 65.721875 -2.36328125 66.09375 C-8.156928 70.27353523 -12.96314544 70.95861342 -20 70 C-26.64468495 67.93034403 -31.92943478 64.46821007 -35.375 58.375 C-38.61205878 50.26186534 -38.4955162 39.32734574 -36.15234375 30.98046875 C-33.0527256 24.81275399 -27.52816974 20.17605658 -21 18 C-19.11018505 17.80401919 -17.21139779 17.68821555 -15.3125 17.625 C-13.82169922 17.55152344 -13.82169922 17.55152344 -12.30078125 17.4765625 C-9 18 -9 18 -1 23 C-0.67 15.41 -0.34 7.82 0 0 Z " transform="translate(1110,61)" style="fill: #131E44;"/><path d="M0 0 C1.30071607 0.92490364 2.5959557 1.857851 3.875 2.8125 C2.55802856 6.61043279 0.95843619 9.16578268 -1.75 12.125 C-2.38164063 12.82238281 -3.01328125 13.51976562 -3.6640625 14.23828125 C-4.38722656 15.01751953 -4.38722656 15.01751953 -5.125 15.8125 C-5.785 15.544375 -6.445 15.27625 -7.125 15 C-8.115 14.608125 -9.105 14.21625 -10.125 13.8125 C-11.259375 13.27625 -12.39375 12.74 -13.5625 12.1875 C-19.49234303 9.91382223 -25.88306457 10.57579739 -32.125 10.8125 C-32.54280879 13.18555578 -32.54280879 13.18555578 -32.125 15.8125 C-27.49716947 19.89418904 -20.56339093 20.499019 -14.69335938 21.7421875 C-6.52441664 23.6164204 0.06310331 26.6908929 4.875 33.8125 C7.3399849 38.7424698 6.4326984 45.98608851 4.8125 51.125 C2.37274765 56.71466736 -2.30643532 60.15281342 -7.75 62.625 C-18.66900555 66.46687232 -31.73110968 66.23836415 -42.51953125 62.1015625 C-46.46039411 60.15181026 -49.83471336 57.7156941 -53.125 54.8125 C-52.50106349 51.05130524 -50.77726285 48.62289958 -48.5625 45.5625 C-47.92183594 44.67046875 -47.28117187 43.7784375 -46.62109375 42.859375 C-45.88052734 41.84617187 -45.88052734 41.84617187 -45.125 40.8125 C-42.08469422 41.9794332 -39.24100483 43.21809715 -36.4375 44.875 C-31.80639781 47.58375789 -28.90514034 47.96710826 -23.625 47.9375 C-22.93535156 47.94136719 -22.24570313 47.94523437 -21.53515625 47.94921875 C-17.70333786 48.00290866 -17.70333786 48.00290866 -14.125 46.8125 C-14.125 44.8325 -14.125 42.8525 -14.125 40.8125 C-20.16169032 38.70393973 -26.12808915 36.76143175 -32.375 35.375 C-39.93334004 33.54477368 -45.76548152 30.43896809 -50.125 23.8125 C-52.1070586 17.86632419 -52.20058017 11.13575317 -49.5625 5.4375 C-36.35518957 -8.78575738 -16.38733317 -10.73040547 0 0 Z " transform="translate(1496.125,171.1875)" style="fill: #162146;"/><path d="M0 0 C0.64324219 0.350625 1.28648438 0.70125 1.94921875 1.0625 C7.0843751 4.27058033 9.94845665 8.86938315 13 14 C9.80815657 16.64179275 6.58418661 18.14549017 2.75 19.6875 C1.67234375 20.12449219 0.5946875 20.56148437 -0.515625 21.01171875 C-1.33546875 21.33785156 -2.1553125 21.66398437 -3 22 C-3.38671875 21.51789063 -3.7734375 21.03578125 -4.171875 20.5390625 C-4.69265625 19.90742187 -5.2134375 19.27578125 -5.75 18.625 C-6.26046875 17.99851562 -6.7709375 17.37203125 -7.296875 16.7265625 C-9.68193989 14.30867562 -11.74503843 13.17861745 -15.11328125 12.69921875 C-21.12627032 12.66717796 -26.16631324 13.29424492 -30.73046875 17.65234375 C-35.44607123 22.95039595 -36.41305155 27.07793253 -36.34765625 34.140625 C-35.64782654 39.89652781 -32.52780749 43.5467197 -28.4375 47.4375 C-23.73862565 50.44959894 -18.45691517 50.6844911 -13 50 C-8.36307999 47.59236846 -5.78898427 44.78898427 -2 41 C2.95 43.31 7.9 45.62 13 48 C8.45260074 57.09479852 3.03677024 62.56214005 -6.58984375 66.15234375 C-18.56140368 69.12809232 -29.56485441 67.1465235 -40.25 61.1875 C-48.25027061 54.82364838 -53.79092044 48.43040475 -55.30273438 37.88916016 C-56.4219859 26.0882444 -54.55676084 17.22742097 -47.20703125 7.66796875 C-35.7705455 -5.04185768 -14.86716422 -8.38519095 0 0 Z " transform="translate(1214,64)" style="fill: #152045;"/><path d="M0 0 C5.97478384 4.81943889 9.31499313 9.32078078 10.21875 17.015625 C10.5833815 26.30905336 9.35690271 33.21895807 3.234375 40.359375 C-2.6049957 45.94012556 -9.26649095 47.65676283 -17.19140625 47.8984375 C-25.81809714 47.62474807 -32.16801424 45.56989448 -38.4609375 39.515625 C-44.32187372 32.76827179 -44.84631801 25.80677089 -44.56640625 17.05078125 C-43.8401296 10.21924151 -41.3883396 6.41988223 -36.50390625 1.7109375 C-26.32086505 -6.50300733 -10.95173809 -7.37924598 0 0 Z " transform="translate(1119.19140625,188.4765625)" style="fill: #141F44;"/><path d="M0 0 C5.97478384 4.81943889 9.31499313 9.32078078 10.21875 17.015625 C10.5833815 26.30905336 9.35690271 33.21895807 3.234375 40.359375 C-2.6049957 45.94012556 -9.26649095 47.65676283 -17.19140625 47.8984375 C-25.81809714 47.62474807 -32.16801424 45.56989448 -38.4609375 39.515625 C-44.32187372 32.76827179 -44.84631801 25.80677089 -44.56640625 17.05078125 C-43.8401296 10.21924151 -41.3883396 6.41988223 -36.50390625 1.7109375 C-26.32086505 -6.50300733 -10.95173809 -7.37924598 0 0 Z " transform="translate(925.19140625,188.4765625)" style="fill: #141F44;"/><path d="M0 0 C5.97478384 4.81943889 9.31499313 9.32078078 10.21875 17.015625 C10.5833815 26.30905336 9.35690271 33.21895807 3.234375 40.359375 C-2.6049957 45.94012556 -9.26649095 47.65676283 -17.19140625 47.8984375 C-25.81809714 47.62474807 -32.16801424 45.56989448 -38.4609375 39.515625 C-44.32187372 32.76827179 -44.84631801 25.80677089 -44.56640625 17.05078125 C-43.8401296 10.21924151 -41.3883396 6.41988223 -36.50390625 1.7109375 C-26.32086505 -6.50300733 -10.95173809 -7.37924598 0 0 Z " transform="translate(564.19140625,188.4765625)" style="fill: #141F44;"/><path d="M0 0 C5.97478384 4.81943889 9.31499313 9.32078078 10.21875 17.015625 C10.5833815 26.30905336 9.35690271 33.21895807 3.234375 40.359375 C-2.6049957 45.94012556 -9.26649095 47.65676283 -17.19140625 47.8984375 C-25.81809714 47.62474807 -32.16801424 45.56989448 -38.4609375 39.515625 C-44.32187372 32.76827179 -44.84631801 25.80677089 -44.56640625 17.05078125 C-43.8401296 10.21924151 -41.3883396 6.41988223 -36.50390625 1.7109375 C-26.32086505 -6.50300733 -10.95173809 -7.37924598 0 0 Z " transform="translate(1582.19140625,83.4765625)" style="fill: #141F44;"/><path d="M0 0 C16.83 0 33.66 0 51 0 C51 4.95 51 9.9 51 15 C40.11 15 29.22 15 18 15 C18 18.63 18 22.26 18 26 C28.56 26 39.12 26 50 26 C50 30.95 50 35.9 50 41 C39.44 41 28.88 41 18 41 C18 50.24 18 59.48 18 69 C12.06 69 6.12 69 0 69 C0 46.23 0 23.46 0 0 Z " transform="translate(464,166)" style="fill: #121D43;"/><path d="M0 0 C5.28 0 10.56 0 16 0 C16.33 7.92 16.66 15.84 17 24 C18.65 22.68 20.3 21.36 22 20 C27.47950994 17.23832699 32.99553118 17.47858073 39 18 C44.38923649 19.82849095 47.46108206 22.92216411 50 28 C50.08711775 31.06242321 50.1154846 34.10186465 50.09765625 37.1640625 C50.0962413 38.07127045 50.09482635 38.97847839 50.09336853 39.91317749 C50.08776096 42.81715155 50.07520718 45.72104915 50.0625 48.625 C50.05748598 50.59114472 50.0529229 52.55729065 50.04882812 54.5234375 C50.03778906 59.3489879 50.02051935 64.17448097 50 69 C44.72 69 39.44 69 34 69 C33.97421875 66.73640625 33.9484375 64.4728125 33.921875 62.140625 C33.88343709 59.94290857 33.83828293 57.74542539 33.79248047 55.54785156 C33.76429465 54.02322569 33.74306811 52.49845434 33.72900391 50.97363281 C33.70753951 48.77854064 33.66087831 46.58519289 33.609375 44.390625 C33.58842773 43.07094727 33.56748047 41.75126953 33.54589844 40.39160156 C32.92387249 36.5270289 32.10936996 35.29998793 29 33 C26.73454164 32.62003682 26.73454164 32.62003682 24.4375 33.0625 C23.29087891 33.20365234 23.29087891 33.20365234 22.12109375 33.34765625 C19.47974268 34.16000547 18.63793556 34.75855433 17 37 C16.6692937 39.50728032 16.5117282 41.78137387 16.48828125 44.29296875 C16.47033005 44.99899734 16.45237885 45.70502594 16.43388367 46.43244934 C16.37976822 48.68407241 16.34588278 50.93548343 16.3125 53.1875 C16.27932781 54.71552431 16.24483823 56.24352063 16.20898438 57.77148438 C16.12156266 61.51435357 16.06151193 65.25625647 16 69 C10.72 69 5.44 69 0 69 C0 46.23 0 23.46 0 0 Z " transform="translate(2035,61)" style="fill: #121D43;"/><path d="M0 0 C5.28 0 10.56 0 16 0 C16.33 7.92 16.66 15.84 17 24 C18.65 22.68 20.3 21.36 22 20 C27.47950994 17.23832699 32.99553118 17.47858073 39 18 C44.38923649 19.82849095 47.46108206 22.92216411 50 28 C50.08711775 31.06242321 50.1154846 34.10186465 50.09765625 37.1640625 C50.0962413 38.07127045 50.09482635 38.97847839 50.09336853 39.91317749 C50.08776096 42.81715155 50.07520718 45.72104915 50.0625 48.625 C50.05748598 50.59114472 50.0529229 52.55729065 50.04882812 54.5234375 C50.03778906 59.3489879 50.02051935 64.17448097 50 69 C44.72 69 39.44 69 34 69 C33.97421875 66.73640625 33.9484375 64.4728125 33.921875 62.140625 C33.88343709 59.94290857 33.83828293 57.74542539 33.79248047 55.54785156 C33.76429465 54.02322569 33.74306811 52.49845434 33.72900391 50.97363281 C33.70753951 48.77854064 33.66087831 46.58519289 33.609375 44.390625 C33.58842773 43.07094727 33.56748047 41.75126953 33.54589844 40.39160156 C32.92387249 36.5270289 32.10936996 35.29998793 29 33 C26.73454164 32.62003682 26.73454164 32.62003682 24.4375 33.0625 C23.29087891 33.20365234 23.29087891 33.20365234 22.12109375 33.34765625 C19.47974268 34.16000547 18.63793556 34.75855433 17 37 C16.6692937 39.50728032 16.5117282 41.78137387 16.48828125 44.29296875 C16.47033005 44.99899734 16.45237885 45.70502594 16.43388367 46.43244934 C16.37976822 48.68407241 16.34588278 50.93548343 16.3125 53.1875 C16.27932781 54.71552431 16.24483823 56.24352063 16.20898438 57.77148438 C16.12156266 61.51435357 16.06151193 65.25625647 16 69 C10.72 69 5.44 69 0 69 C0 46.23 0 23.46 0 0 Z " transform="translate(722,61)" style="fill: #121D43;"/><path d="M0 0 C2.5625 2.5 2.5625 2.5 4 5 C4.53343018 5.79809082 4.53343018 5.79809082 5.07763672 6.61230469 C6.47931557 10.24079045 6.24412582 13.87016056 6.1953125 17.703125 C6.1924826 18.54091492 6.18965271 19.37870483 6.18673706 20.24188232 C6.17556349 22.91140163 6.15046421 25.5805825 6.125 28.25 C6.11496654 30.06249515 6.10584133 31.87499556 6.09765625 33.6875 C6.0756334 38.12512993 6.04112304 42.56250763 6 47 C0.72 47 -4.56 47 -10 47 C-10.33 46.01 -10.66 45.02 -11 44 C-11.52207031 44.28875 -12.04414062 44.5775 -12.58203125 44.875 C-18.71977209 47.97074319 -24.15499977 49.16102511 -31 48 C-36.49451499 45.84078424 -40.58175943 42.44104128 -43 37 C-43.76013796 31.69487052 -43.68112785 27.44084738 -41.375 22.5625 C-37.69808366 18.5953008 -35.35240382 16.27977618 -29.78125 15.6171875 C-22.3773752 15.37988382 -17.2580482 15.99484915 -11 20 C-10.66619186 16.62563814 -10.66619186 16.62563814 -11 13 C-13.22243802 10.69856537 -14.62606819 10.05312123 -17.8046875 9.6015625 C-23.73604319 9.64684002 -27.77608342 9.91922868 -33 13 C-36.28768825 11.90410392 -36.64293383 11.52272691 -38.3125 8.6875 C-38.67988281 8.09324219 -39.04726562 7.49898437 -39.42578125 6.88671875 C-40 5 -40 5 -39.37890625 2.90625 C-37.68270955 0.56136618 -36.29094665 -0.10252171 -33.625 -1.1875 C-32.46871094 -1.67283203 -32.46871094 -1.67283203 -31.2890625 -2.16796875 C-21.15554094 -5.85131362 -9.49079175 -5.17223042 0 0 Z " transform="translate(1405,188)" style="fill: #152045;"/><path d="M0 0 C2.5625 2.5 2.5625 2.5 4 5 C4.53343018 5.79809082 4.53343018 5.79809082 5.07763672 6.61230469 C6.47931557 10.24079045 6.24412582 13.87016056 6.1953125 17.703125 C6.1924826 18.54091492 6.18965271 19.37870483 6.18673706 20.24188232 C6.17556349 22.91140163 6.15046421 25.5805825 6.125 28.25 C6.11496654 30.06249515 6.10584133 31.87499556 6.09765625 33.6875 C6.0756334 38.12512993 6.04112304 42.56250763 6 47 C0.72 47 -4.56 47 -10 47 C-10.33 46.01 -10.66 45.02 -11 44 C-11.52207031 44.28875 -12.04414062 44.5775 -12.58203125 44.875 C-18.71977209 47.97074319 -24.15499977 49.16102511 -31 48 C-36.49451499 45.84078424 -40.58175943 42.44104128 -43 37 C-43.76013796 31.69487052 -43.68112785 27.44084738 -41.375 22.5625 C-37.69808366 18.5953008 -35.35240382 16.27977618 -29.78125 15.6171875 C-22.3773752 15.37988382 -17.2580482 15.99484915 -11 20 C-10.66619186 16.62563814 -10.66619186 16.62563814 -11 13 C-13.22243802 10.69856537 -14.62606819 10.05312123 -17.8046875 9.6015625 C-23.73604319 9.64684002 -27.77608342 9.91922868 -33 13 C-36.28768825 11.90410392 -36.64293383 11.52272691 -38.3125 8.6875 C-38.67988281 8.09324219 -39.04726562 7.49898437 -39.42578125 6.88671875 C-40 5 -40 5 -39.37890625 2.90625 C-37.68270955 0.56136618 -36.29094665 -0.10252171 -33.625 -1.1875 C-32.46871094 -1.67283203 -32.46871094 -1.67283203 -31.2890625 -2.16796875 C-21.15554094 -5.85131362 -9.49079175 -5.17223042 0 0 Z " transform="translate(1313,188)" style="fill: #152045;"/><path d="M0 0 C2.5625 2.5 2.5625 2.5 4 5 C4.53343018 5.79809082 4.53343018 5.79809082 5.07763672 6.61230469 C6.47931557 10.24079045 6.24412582 13.87016056 6.1953125 17.703125 C6.1924826 18.54091492 6.18965271 19.37870483 6.18673706 20.24188232 C6.17556349 22.91140163 6.15046421 25.5805825 6.125 28.25 C6.11496654 30.06249515 6.10584133 31.87499556 6.09765625 33.6875 C6.0756334 38.12512993 6.04112304 42.56250763 6 47 C0.72 47 -4.56 47 -10 47 C-10.33 46.01 -10.66 45.02 -11 44 C-11.52207031 44.28875 -12.04414062 44.5775 -12.58203125 44.875 C-18.71977209 47.97074319 -24.15499977 49.16102511 -31 48 C-36.49451499 45.84078424 -40.58175943 42.44104128 -43 37 C-43.76013796 31.69487052 -43.68112785 27.44084738 -41.375 22.5625 C-37.69808366 18.5953008 -35.35240382 16.27977618 -29.78125 15.6171875 C-22.3773752 15.37988382 -17.2580482 15.99484915 -11 20 C-10.66619186 16.62563814 -10.66619186 16.62563814 -11 13 C-13.22243802 10.69856537 -14.62606819 10.05312123 -17.8046875 9.6015625 C-23.73604319 9.64684002 -27.77608342 9.91922868 -33 13 C-36.28768825 11.90410392 -36.64293383 11.52272691 -38.3125 8.6875 C-38.67988281 8.09324219 -39.04726563 7.49898437 -39.42578125 6.88671875 C-40 5 -40 5 -39.37890625 2.90625 C-37.68270955 0.56136618 -36.29094665 -0.10252171 -33.625 -1.1875 C-32.46871094 -1.67283203 -32.46871094 -1.67283203 -31.2890625 -2.16796875 C-21.15554094 -5.85131362 -9.49079175 -5.17223042 0 0 Z " transform="translate(804,188)" style="fill: #152045;"/><path d="M0 0 C2.5625 2.5 2.5625 2.5 4 5 C4.53343018 5.79809082 4.53343018 5.79809082 5.07763672 6.61230469 C6.47931557 10.24079045 6.24412582 13.87016056 6.1953125 17.703125 C6.1924826 18.54091492 6.18965271 19.37870483 6.18673706 20.24188232 C6.17556349 22.91140163 6.15046421 25.5805825 6.125 28.25 C6.11496654 30.06249515 6.10584133 31.87499556 6.09765625 33.6875 C6.0756334 38.12512993 6.04112304 42.56250763 6 47 C0.72 47 -4.56 47 -10 47 C-10.33 46.01 -10.66 45.02 -11 44 C-11.52207031 44.28875 -12.04414063 44.5775 -12.58203125 44.875 C-18.71977209 47.97074319 -24.15499977 49.16102511 -31 48 C-36.49451499 45.84078424 -40.58175943 42.44104128 -43 37 C-43.76013796 31.69487052 -43.68112785 27.44084738 -41.375 22.5625 C-37.69808366 18.5953008 -35.35240382 16.27977618 -29.78125 15.6171875 C-22.3773752 15.37988382 -17.2580482 15.99484915 -11 20 C-10.66619186 16.62563814 -10.66619186 16.62563814 -11 13 C-13.22243802 10.69856537 -14.62606819 10.05312123 -17.8046875 9.6015625 C-23.73604319 9.64684002 -27.77608342 9.91922868 -33 13 C-36.28768825 11.90410392 -36.64293383 11.52272691 -38.3125 8.6875 C-38.67988281 8.09324219 -39.04726562 7.49898437 -39.42578125 6.88671875 C-40 5 -40 5 -39.37890625 2.90625 C-37.68270955 0.56136618 -36.29094665 -0.10252171 -33.625 -1.1875 C-32.46871094 -1.67283203 -32.46871094 -1.67283203 -31.2890625 -2.16796875 C-21.15554094 -5.85131362 -9.49079175 -5.17223042 0 0 Z " transform="translate(2254,83)" style="fill: #152045;"/><path d="M0 0 C2.5625 2.5 2.5625 2.5 4 5 C4.53343018 5.79809082 4.53343018 5.79809082 5.07763672 6.61230469 C6.47931557 10.24079045 6.24412582 13.87016056 6.1953125 17.703125 C6.1924826 18.54091492 6.18965271 19.37870483 6.18673706 20.24188232 C6.17556349 22.91140163 6.15046421 25.5805825 6.125 28.25 C6.11496654 30.06249515 6.10584133 31.87499556 6.09765625 33.6875 C6.0756334 38.12512993 6.04112304 42.56250763 6 47 C0.72 47 -4.56 47 -10 47 C-10.33 46.01 -10.66 45.02 -11 44 C-11.52207031 44.28875 -12.04414062 44.5775 -12.58203125 44.875 C-18.71977209 47.97074319 -24.15499977 49.16102511 -31 48 C-36.49451499 45.84078424 -40.58175943 42.44104128 -43 37 C-43.76013796 31.69487052 -43.68112785 27.44084738 -41.375 22.5625 C-37.69808366 18.5953008 -35.35240382 16.27977618 -29.78125 15.6171875 C-22.3773752 15.37988382 -17.2580482 15.99484915 -11 20 C-10.66619186 16.62563814 -10.66619186 16.62563814 -11 13 C-13.22243802 10.69856537 -14.62606819 10.05312123 -17.8046875 9.6015625 C-23.73604319 9.64684002 -27.77608342 9.91922868 -33 13 C-36.28768825 11.90410392 -36.64293383 11.52272691 -38.3125 8.6875 C-38.67988281 8.09324219 -39.04726562 7.49898437 -39.42578125 6.88671875 C-40 5 -40 5 -39.37890625 2.90625 C-37.68270955 0.56136618 -36.29094665 -0.10252171 -33.625 -1.1875 C-32.46871094 -1.67283203 -32.46871094 -1.67283203 -31.2890625 -2.16796875 C-21.15554094 -5.85131362 -9.49079175 -5.17223042 0 0 Z " transform="translate(1930,83)" style="fill: #152045;"/><path d="M0 0 C2.5625 2.5 2.5625 2.5 4 5 C4.53343018 5.79809082 4.53343018 5.79809082 5.07763672 6.61230469 C6.47931557 10.24079045 6.24412582 13.87016056 6.1953125 17.703125 C6.1924826 18.54091492 6.18965271 19.37870483 6.18673706 20.24188232 C6.17556349 22.91140163 6.15046421 25.5805825 6.125 28.25 C6.11496654 30.06249515 6.10584133 31.87499556 6.09765625 33.6875 C6.0756334 38.12512993 6.04112304 42.56250763 6 47 C0.72 47 -4.56 47 -10 47 C-10.33 46.01 -10.66 45.02 -11 44 C-11.52207031 44.28875 -12.04414062 44.5775 -12.58203125 44.875 C-18.71977209 47.97074319 -24.15499977 49.16102511 -31 48 C-36.49451499 45.84078424 -40.58175943 42.44104128 -43 37 C-43.76013796 31.69487052 -43.68112785 27.44084738 -41.375 22.5625 C-37.69808366 18.5953008 -35.35240382 16.27977618 -29.78125 15.6171875 C-22.3773752 15.37988382 -17.2580482 15.99484915 -11 20 C-10.66619186 16.62563814 -10.66619186 16.62563814 -11 13 C-13.22243802 10.69856537 -14.62606819 10.05312123 -17.8046875 9.6015625 C-23.73604319 9.64684002 -27.77608342 9.91922868 -33 13 C-36.28768825 11.90410392 -36.64293383 11.52272691 -38.3125 8.6875 C-38.67988281 8.09324219 -39.04726563 7.49898437 -39.42578125 6.88671875 C-40 5 -40 5 -39.37890625 2.90625 C-37.68270955 0.56136618 -36.29094665 -0.10252171 -33.625 -1.1875 C-32.46871094 -1.67283203 -32.46871094 -1.67283203 -31.2890625 -2.16796875 C-21.15554094 -5.85131362 -9.49079175 -5.17223042 0 0 Z " transform="translate(999,83)" style="fill: #152045;"/><path d="M0 0 C2.5625 2.5 2.5625 2.5 4 5 C4.53343018 5.79809082 4.53343018 5.79809082 5.07763672 6.61230469 C6.47931557 10.24079045 6.24412582 13.87016056 6.1953125 17.703125 C6.1924826 18.54091492 6.18965271 19.37870483 6.18673706 20.24188232 C6.17556349 22.91140163 6.15046421 25.5805825 6.125 28.25 C6.11496654 30.06249515 6.10584133 31.87499556 6.09765625 33.6875 C6.0756334 38.12512993 6.04112304 42.56250763 6 47 C0.72 47 -4.56 47 -10 47 C-10.33 46.01 -10.66 45.02 -11 44 C-11.52207031 44.28875 -12.04414062 44.5775 -12.58203125 44.875 C-18.71977209 47.97074319 -24.15499977 49.16102511 -31 48 C-36.49451499 45.84078424 -40.58175943 42.44104128 -43 37 C-43.76013796 31.69487052 -43.68112785 27.44084738 -41.375 22.5625 C-37.69808366 18.5953008 -35.35240382 16.27977618 -29.78125 15.6171875 C-22.3773752 15.37988382 -17.2580482 15.99484915 -11 20 C-10.66619186 16.62563814 -10.66619186 16.62563814 -11 13 C-13.22243802 10.69856537 -14.62606819 10.05312123 -17.8046875 9.6015625 C-23.73604319 9.64684002 -27.77608342 9.91922868 -33 13 C-36.28768825 11.90410392 -36.64293383 11.52272691 -38.3125 8.6875 C-38.67988281 8.09324219 -39.04726563 7.49898437 -39.42578125 6.88671875 C-40 5 -40 5 -39.37890625 2.90625 C-37.68270955 0.56136618 -36.29094665 -0.10252171 -33.625 -1.1875 C-32.46871094 -1.67283203 -32.46871094 -1.67283203 -31.2890625 -2.16796875 C-21.15554094 -5.85131362 -9.49079175 -5.17223042 0 0 Z " transform="translate(617,83)" style="fill: #152045;"/><path d="M0 0 C6.68895117 3.91907712 11.10756861 8.90263343 13.5234375 16.3515625 C13.9152332 20.5633663 13.7734375 24.80907489 13.7734375 29.0390625 C2.2234375 29.0390625 -9.3265625 29.0390625 -21.2265625 29.0390625 C-18.72599657 34.01527993 -18.72599657 34.01527993 -15.2265625 36.0390625 C-8.63427625 36.69443599 -2.45013067 36.3021782 3.7734375 34.0390625 C4.80663563 35.2998637 5.82468129 36.57309508 6.8359375 37.8515625 C7.40441406 38.55925781 7.97289062 39.26695312 8.55859375 39.99609375 C8.95949219 40.67027344 9.36039063 41.34445313 9.7734375 42.0390625 C8.7734375 45.0390625 8.7734375 45.0390625 6.8125 46.171875 C6.01585937 46.49929687 5.21921875 46.82671875 4.3984375 47.1640625 C3.60695313 47.49664062 2.81546875 47.82921875 2 48.171875 C-5.45441639 51.07517402 -14.5066564 51.34068609 -22.2578125 49.203125 C-28.93674707 46.13163966 -33.33925587 41.33126665 -37.390625 35.30859375 C-39.79004963 28.794268 -39.58808451 17.82083301 -36.7265625 11.4140625 C-28.87468475 -0.93252972 -13.56808557 -6.12567576 0 0 Z " transform="translate(1790.2265625,185.9609375)" style="fill: #162146;"/><path d="M0 0 C6.68895117 3.91907712 11.10756861 8.90263343 13.5234375 16.3515625 C13.9152332 20.5633663 13.7734375 24.80907489 13.7734375 29.0390625 C2.2234375 29.0390625 -9.3265625 29.0390625 -21.2265625 29.0390625 C-18.72599657 34.01527993 -18.72599657 34.01527993 -15.2265625 36.0390625 C-8.63427625 36.69443599 -2.45013067 36.3021782 3.7734375 34.0390625 C4.80663563 35.2998637 5.82468129 36.57309508 6.8359375 37.8515625 C7.40441406 38.55925781 7.97289062 39.26695312 8.55859375 39.99609375 C8.95949219 40.67027344 9.36039063 41.34445313 9.7734375 42.0390625 C8.7734375 45.0390625 8.7734375 45.0390625 6.8125 46.171875 C6.01585937 46.49929687 5.21921875 46.82671875 4.3984375 47.1640625 C3.60695313 47.49664062 2.81546875 47.82921875 2 48.171875 C-5.45441639 51.07517402 -14.5066564 51.34068609 -22.2578125 49.203125 C-28.93674707 46.13163966 -33.33925587 41.33126665 -37.390625 35.30859375 C-39.79004963 28.794268 -39.58808451 17.82083301 -36.7265625 11.4140625 C-28.87468475 -0.93252972 -13.56808557 -6.12567576 0 0 Z " transform="translate(1622.2265625,185.9609375)" style="fill: #162146;"/><path d="M0 0 C6.68895117 3.91907712 11.10756861 8.90263343 13.5234375 16.3515625 C13.9152332 20.5633663 13.7734375 24.80907489 13.7734375 29.0390625 C2.2234375 29.0390625 -9.3265625 29.0390625 -21.2265625 29.0390625 C-18.72599657 34.01527993 -18.72599657 34.01527993 -15.2265625 36.0390625 C-8.63427625 36.69443599 -2.45013067 36.3021782 3.7734375 34.0390625 C4.80663563 35.2998637 5.82468129 36.57309508 6.8359375 37.8515625 C7.40441406 38.55925781 7.97289062 39.26695313 8.55859375 39.99609375 C8.95949219 40.67027344 9.36039063 41.34445313 9.7734375 42.0390625 C8.7734375 45.0390625 8.7734375 45.0390625 6.8125 46.171875 C6.01585937 46.49929687 5.21921875 46.82671875 4.3984375 47.1640625 C3.60695313 47.49664062 2.81546875 47.82921875 2 48.171875 C-5.45441639 51.07517402 -14.5066564 51.34068609 -22.2578125 49.203125 C-28.93674707 46.13163966 -33.33925587 41.33126665 -37.390625 35.30859375 C-39.79004963 28.794268 -39.58808451 17.82083301 -36.7265625 11.4140625 C-28.87468475 -0.93252972 -13.56808557 -6.12567576 0 0 Z " transform="translate(1869.2265625,80.9609375)" style="fill: #162146;"/><path d="M0 0 C6.68895117 3.91907712 11.10756861 8.90263343 13.5234375 16.3515625 C13.9152332 20.5633663 13.7734375 24.80907489 13.7734375 29.0390625 C2.2234375 29.0390625 -9.3265625 29.0390625 -21.2265625 29.0390625 C-18.72599657 34.01527993 -18.72599657 34.01527993 -15.2265625 36.0390625 C-8.63427625 36.69443599 -2.45013067 36.3021782 3.7734375 34.0390625 C4.80663563 35.2998637 5.82468129 36.57309508 6.8359375 37.8515625 C7.40441406 38.55925781 7.97289062 39.26695313 8.55859375 39.99609375 C8.95949219 40.67027344 9.36039063 41.34445313 9.7734375 42.0390625 C8.7734375 45.0390625 8.7734375 45.0390625 6.8125 46.171875 C6.01585937 46.49929687 5.21921875 46.82671875 4.3984375 47.1640625 C3.60695313 47.49664062 2.81546875 47.82921875 2 48.171875 C-5.45441639 51.07517402 -14.5066564 51.34068609 -22.2578125 49.203125 C-28.93674707 46.13163966 -33.33925587 41.33126665 -37.390625 35.30859375 C-39.79004963 28.794268 -39.58808451 17.82083301 -36.7265625 11.4140625 C-28.87468475 -0.93252972 -13.56808557 -6.12567576 0 0 Z " transform="translate(1763.2265625,80.9609375)" style="fill: #162146;"/><path d="M0 0 C6.68895117 3.91907712 11.10756861 8.90263343 13.5234375 16.3515625 C13.9152332 20.5633663 13.7734375 24.80907489 13.7734375 29.0390625 C2.2234375 29.0390625 -9.3265625 29.0390625 -21.2265625 29.0390625 C-18.72599657 34.01527993 -18.72599657 34.01527993 -15.2265625 36.0390625 C-8.63427625 36.69443599 -2.45013067 36.3021782 3.7734375 34.0390625 C4.80663563 35.2998637 5.82468129 36.57309508 6.8359375 37.8515625 C7.40441406 38.55925781 7.97289062 39.26695313 8.55859375 39.99609375 C8.95949219 40.67027344 9.36039063 41.34445313 9.7734375 42.0390625 C8.7734375 45.0390625 8.7734375 45.0390625 6.8125 46.171875 C6.01585937 46.49929687 5.21921875 46.82671875 4.3984375 47.1640625 C3.60695313 47.49664062 2.81546875 47.82921875 2 48.171875 C-5.45441639 51.07517402 -14.5066564 51.34068609 -22.2578125 49.203125 C-28.93674707 46.13163966 -33.33925587 41.33126665 -37.390625 35.30859375 C-39.79004963 28.794268 -39.58808451 17.82083301 -36.7265625 11.4140625 C-28.87468475 -0.93252972 -13.56808557 -6.12567576 0 0 Z " transform="translate(1459.2265625,80.9609375)" style="fill: #162146;"/><path d="M0 0 C6.68895117 3.91907712 11.10756861 8.90263343 13.5234375 16.3515625 C13.9152332 20.5633663 13.7734375 24.80907489 13.7734375 29.0390625 C2.2234375 29.0390625 -9.3265625 29.0390625 -21.2265625 29.0390625 C-18.72599657 34.01527993 -18.72599657 34.01527993 -15.2265625 36.0390625 C-8.63427625 36.69443599 -2.45013067 36.3021782 3.7734375 34.0390625 C4.80663563 35.2998637 5.82468129 36.57309508 6.8359375 37.8515625 C7.40441406 38.55925781 7.97289062 39.26695313 8.55859375 39.99609375 C8.95949219 40.67027344 9.36039063 41.34445313 9.7734375 42.0390625 C8.7734375 45.0390625 8.7734375 45.0390625 6.8125 46.171875 C6.01585937 46.49929687 5.21921875 46.82671875 4.3984375 47.1640625 C3.60695313 47.49664062 2.81546875 47.82921875 2 48.171875 C-5.45441639 51.07517402 -14.5066564 51.34068609 -22.2578125 49.203125 C-28.93674707 46.13163966 -33.33925587 41.33126665 -37.390625 35.30859375 C-39.79004963 28.794268 -39.58808451 17.82083301 -36.7265625 11.4140625 C-28.87468475 -0.93252972 -13.56808557 -6.12567576 0 0 Z " transform="translate(1268.2265625,80.9609375)" style="fill: #162146;"/><path d="M0 0 C6.68895117 3.91907712 11.10756861 8.90263343 13.5234375 16.3515625 C13.9152332 20.5633663 13.7734375 24.80907489 13.7734375 29.0390625 C2.2234375 29.0390625 -9.3265625 29.0390625 -21.2265625 29.0390625 C-18.72599657 34.01527993 -18.72599657 34.01527993 -15.2265625 36.0390625 C-8.63427625 36.69443599 -2.45013067 36.3021782 3.7734375 34.0390625 C4.80663563 35.2998637 5.82468129 36.57309508 6.8359375 37.8515625 C7.40441406 38.55925781 7.97289062 39.26695313 8.55859375 39.99609375 C8.95949219 40.67027344 9.36039063 41.34445313 9.7734375 42.0390625 C8.7734375 45.0390625 8.7734375 45.0390625 6.8125 46.171875 C6.01585937 46.49929687 5.21921875 46.82671875 4.3984375 47.1640625 C3.60695313 47.49664062 2.81546875 47.82921875 2 48.171875 C-5.45441639 51.07517402 -14.5066564 51.34068609 -22.2578125 49.203125 C-28.93674707 46.13163966 -33.33925587 41.33126665 -37.390625 35.30859375 C-39.79004963 28.794268 -39.58808451 17.82083301 -36.7265625 11.4140625 C-28.87468475 -0.93252972 -13.56808557 -6.12567576 0 0 Z " transform="translate(911.2265625,80.9609375)" style="fill: #162146;"/><path d="M0 0 C6.68895117 3.91907712 11.10756861 8.90263343 13.5234375 16.3515625 C13.9152332 20.5633663 13.7734375 24.80907489 13.7734375 29.0390625 C2.2234375 29.0390625 -9.3265625 29.0390625 -21.2265625 29.0390625 C-18.72599657 34.01527993 -18.72599657 34.01527993 -15.2265625 36.0390625 C-8.63427625 36.69443599 -2.45013067 36.3021782 3.7734375 34.0390625 C4.80663563 35.2998637 5.82468129 36.57309508 6.8359375 37.8515625 C7.40441406 38.55925781 7.97289062 39.26695313 8.55859375 39.99609375 C8.95949219 40.67027344 9.36039063 41.34445313 9.7734375 42.0390625 C8.7734375 45.0390625 8.7734375 45.0390625 6.8125 46.171875 C6.01585937 46.49929687 5.21921875 46.82671875 4.3984375 47.1640625 C3.60695313 47.49664062 2.81546875 47.82921875 2 48.171875 C-5.45441639 51.07517402 -14.5066564 51.34068609 -22.2578125 49.203125 C-28.93674707 46.13163966 -33.33925587 41.33126665 -37.390625 35.30859375 C-39.79004963 28.794268 -39.58808451 17.82083301 -36.7265625 11.4140625 C-28.87468475 -0.93252972 -13.56808557 -6.12567576 0 0 Z " transform="translate(556.2265625,80.9609375)" style="fill: #162146;"/><path d="M0 0 C6.68895117 3.91907712 11.10756861 8.90263343 13.5234375 16.3515625 C13.9152332 20.5633663 13.7734375 24.80907489 13.7734375 29.0390625 C2.2234375 29.0390625 -9.3265625 29.0390625 -21.2265625 29.0390625 C-18.72599657 34.01527993 -18.72599657 34.01527993 -15.2265625 36.0390625 C-8.63427625 36.69443599 -2.45013067 36.3021782 3.7734375 34.0390625 C4.80663563 35.2998637 5.82468129 36.57309508 6.8359375 37.8515625 C7.40441406 38.55925781 7.97289062 39.26695313 8.55859375 39.99609375 C8.95949219 40.67027344 9.36039062 41.34445313 9.7734375 42.0390625 C8.7734375 45.0390625 8.7734375 45.0390625 6.8125 46.171875 C6.01585937 46.49929687 5.21921875 46.82671875 4.3984375 47.1640625 C3.60695313 47.49664062 2.81546875 47.82921875 2 48.171875 C-5.45441639 51.07517402 -14.5066564 51.34068609 -22.2578125 49.203125 C-28.93674707 46.13163966 -33.33925587 41.33126665 -37.390625 35.30859375 C-39.79004963 28.794268 -39.58808451 17.82083301 -36.7265625 11.4140625 C-28.87468475 -0.93252972 -13.56808557 -6.12567576 0 0 Z " transform="translate(450.2265625,80.9609375)" style="fill: #162146;"/><path d="M0 0 C19.14 0 38.28 0 58 0 C58 5.28 58 10.56 58 16 C51.4 16 44.8 16 38 16 C38 33.49 38 50.98 38 69 C32.06 69 26.12 69 20 69 C20 51.51 20 34.02 20 16 C13.4 16 6.8 16 0 16 C0 10.72 0 5.44 0 0 Z " transform="translate(2117,61)" style="fill: #152045;"/><path d="M0 0 C5.28 0 10.56 0 16 0 C16.02578125 2.26359375 16.0515625 4.5271875 16.078125 6.859375 C16.11656291 9.05709143 16.16171707 11.25457461 16.20751953 13.45214844 C16.23570535 14.97677431 16.25693189 16.50154566 16.27099609 18.02636719 C16.29246049 20.22145936 16.33912169 22.41480711 16.390625 24.609375 C16.41157227 25.92905273 16.43251953 27.24873047 16.45410156 28.60839844 C17.07815522 32.48556904 17.86848474 33.70526903 21 36 C24.83202172 36.66643856 26.6586383 36.17033636 30.14501953 34.43066406 C33.30258236 32.23346639 33.30258236 32.23346639 33.77294922 28.60839844 C33.78342285 27.2887207 33.79389648 25.96904297 33.8046875 24.609375 C33.81839386 23.90476135 33.83210022 23.20014771 33.84622192 22.47418213 C33.88349918 20.23213721 33.87980976 17.99231059 33.875 15.75 C33.89312886 14.22652792 33.91393218 12.70308515 33.9375 11.1796875 C33.99435182 7.45183226 33.99575197 3.72976607 34 0 C39.28 0 44.56 0 50 0 C50 16.5 50 33 50 50 C44.72 50 39.44 50 34 50 C34 48.35 34 46.7 34 45 C33.45730469 45.34933594 32.91460938 45.69867188 32.35546875 46.05859375 C31.64003906 46.51363281 30.92460938 46.96867187 30.1875 47.4375 C29.12595703 48.11619141 29.12595703 48.11619141 28.04296875 48.80859375 C22.52230935 52.02809876 16.18950931 51.5557616 10 51 C5.95289124 49.5345366 3.22991844 46.63828799 1 43 C0.09791877 40.2937563 -0.12227599 38.76149014 -0.11352539 35.98754883 C-0.11344986 35.18694534 -0.11337433 34.38634186 -0.11329651 33.56147766 C-0.10813522 32.70201035 -0.10297394 31.84254303 -0.09765625 30.95703125 C-0.0962413 30.0734343 -0.09482635 29.18983734 -0.09336853 28.27946472 C-0.08777069 25.45710872 -0.07521861 22.63483203 -0.0625 19.8125 C-0.05748472 17.89908969 -0.05292186 15.98567813 -0.04882812 14.07226562 C-0.03780197 9.38147986 -0.02053883 4.69075337 0 0 Z " transform="translate(582,185)" style="fill: #121D43;"/><path d="M0 0 C3.98551787 3.8833251 6.63292906 7.14733561 6.89160156 12.81982422 C6.89097425 14.52324328 6.86872908 16.22675233 6.828125 17.9296875 C6.82246521 18.83123566 6.81680542 19.73278381 6.81097412 20.66165161 C6.78868555 23.52498763 6.73850389 26.38704589 6.6875 29.25 C6.66742525 31.19789852 6.64917619 33.14581677 6.6328125 35.09375 C6.58884547 39.8546547 6.51987063 44.61461114 6.4375 49.375 C1.1575 49.375 -4.1225 49.375 -9.5625 49.375 C-9.58828125 47.11140625 -9.6140625 44.8478125 -9.640625 42.515625 C-9.67906291 40.31790857 -9.72421707 38.12042539 -9.77001953 35.92285156 C-9.79820535 34.39822569 -9.81943189 32.87345434 -9.83349609 31.34863281 C-9.85496049 29.15354064 -9.90162169 26.96019289 -9.953125 24.765625 C-9.97407227 23.44594727 -9.99501953 22.12626953 -10.01660156 20.76660156 C-10.63862751 16.9020289 -11.45313004 15.67498793 -14.5625 13.375 C-16.82795836 12.99503682 -16.82795836 12.99503682 -19.125 13.4375 C-20.27162109 13.57865234 -20.27162109 13.57865234 -21.44140625 13.72265625 C-24.08275732 14.53500547 -24.92456444 15.13355433 -26.5625 17.375 C-26.8932063 19.88228032 -27.0507718 22.15637387 -27.07421875 24.66796875 C-27.09216995 25.37399734 -27.11012115 26.08002594 -27.12861633 26.80744934 C-27.18273178 29.05907241 -27.21661722 31.31048343 -27.25 33.5625 C-27.28317219 35.09052431 -27.31766177 36.61852063 -27.35351562 38.14648438 C-27.44093734 41.88935357 -27.50098807 45.63125647 -27.5625 49.375 C-32.8425 49.375 -38.1225 49.375 -43.5625 49.375 C-43.5625 32.875 -43.5625 16.375 -43.5625 -0.625 C-38.2825 -0.625 -33.0025 -0.625 -27.5625 -0.625 C-27.2325 1.025 -26.9025 2.675 -26.5625 4.375 C-25.840625 3.75625 -25.11875 3.1375 -24.375 2.5 C-17.37980601 -2.78525768 -7.98710966 -3.643243 0 0 Z " transform="translate(1686.5625,185.625)" style="fill: #121D43;"/><path d="M0 0 C3.98551787 3.8833251 6.63292906 7.14733561 6.89160156 12.81982422 C6.89097425 14.52324328 6.86872908 16.22675233 6.828125 17.9296875 C6.82246521 18.83123566 6.81680542 19.73278381 6.81097412 20.66165161 C6.78868555 23.52498763 6.73850389 26.38704589 6.6875 29.25 C6.66742525 31.19789852 6.64917619 33.14581677 6.6328125 35.09375 C6.58884547 39.8546547 6.51987063 44.61461114 6.4375 49.375 C1.1575 49.375 -4.1225 49.375 -9.5625 49.375 C-9.58828125 47.11140625 -9.6140625 44.8478125 -9.640625 42.515625 C-9.67906291 40.31790857 -9.72421707 38.12042539 -9.77001953 35.92285156 C-9.79820535 34.39822569 -9.81943189 32.87345434 -9.83349609 31.34863281 C-9.85496049 29.15354064 -9.90162169 26.96019289 -9.953125 24.765625 C-9.97407227 23.44594727 -9.99501953 22.12626953 -10.01660156 20.76660156 C-10.63862751 16.9020289 -11.45313004 15.67498793 -14.5625 13.375 C-16.82795836 12.99503682 -16.82795836 12.99503682 -19.125 13.4375 C-20.27162109 13.57865234 -20.27162109 13.57865234 -21.44140625 13.72265625 C-24.08275732 14.53500547 -24.92456444 15.13355433 -26.5625 17.375 C-26.8932063 19.88228032 -27.0507718 22.15637387 -27.07421875 24.66796875 C-27.09216995 25.37399734 -27.11012115 26.08002594 -27.12861633 26.80744934 C-27.18273178 29.05907241 -27.21661722 31.31048343 -27.25 33.5625 C-27.28317219 35.09052431 -27.31766177 36.61852063 -27.35351562 38.14648438 C-27.44093734 41.88935357 -27.50098807 45.63125647 -27.5625 49.375 C-32.8425 49.375 -38.1225 49.375 -43.5625 49.375 C-43.5625 32.875 -43.5625 16.375 -43.5625 -0.625 C-38.2825 -0.625 -33.0025 -0.625 -27.5625 -0.625 C-27.2325 1.025 -26.9025 2.675 -26.5625 4.375 C-25.840625 3.75625 -25.11875 3.1375 -24.375 2.5 C-17.37980601 -2.78525768 -7.98710966 -3.643243 0 0 Z " transform="translate(985.5625,185.625)" style="fill: #121D43;"/><path d="M0 0 C3.98551787 3.8833251 6.63292906 7.14733561 6.89160156 12.81982422 C6.89097425 14.52324328 6.86872908 16.22675233 6.828125 17.9296875 C6.82246521 18.83123566 6.81680542 19.73278381 6.81097412 20.66165161 C6.78868555 23.52498763 6.73850389 26.38704589 6.6875 29.25 C6.66742525 31.19789852 6.64917619 33.14581677 6.6328125 35.09375 C6.58884547 39.8546547 6.51987063 44.61461114 6.4375 49.375 C1.1575 49.375 -4.1225 49.375 -9.5625 49.375 C-9.58828125 47.11140625 -9.6140625 44.8478125 -9.640625 42.515625 C-9.67906291 40.31790857 -9.72421707 38.12042539 -9.77001953 35.92285156 C-9.79820535 34.39822569 -9.81943189 32.87345434 -9.83349609 31.34863281 C-9.85496049 29.15354064 -9.90162169 26.96019289 -9.953125 24.765625 C-9.97407227 23.44594727 -9.99501953 22.12626953 -10.01660156 20.76660156 C-10.63862751 16.9020289 -11.45313004 15.67498793 -14.5625 13.375 C-16.82795836 12.99503682 -16.82795836 12.99503682 -19.125 13.4375 C-20.27162109 13.57865234 -20.27162109 13.57865234 -21.44140625 13.72265625 C-24.08275732 14.53500547 -24.92456444 15.13355433 -26.5625 17.375 C-26.8932063 19.88228032 -27.0507718 22.15637387 -27.07421875 24.66796875 C-27.09216995 25.37399734 -27.11012115 26.08002594 -27.12861633 26.80744934 C-27.18273178 29.05907241 -27.21661722 31.31048343 -27.25 33.5625 C-27.28317219 35.09052431 -27.31766177 36.61852063 -27.35351562 38.14648438 C-27.44093734 41.88935357 -27.50098807 45.63125647 -27.5625 49.375 C-32.8425 49.375 -38.1225 49.375 -43.5625 49.375 C-43.5625 32.875 -43.5625 16.375 -43.5625 -0.625 C-38.2825 -0.625 -33.0025 -0.625 -27.5625 -0.625 C-27.2325 1.025 -26.9025 2.675 -26.5625 4.375 C-25.840625 3.75625 -25.11875 3.1375 -24.375 2.5 C-17.37980601 -2.78525768 -7.98710966 -3.643243 0 0 Z " transform="translate(686.5625,185.625)" style="fill: #121D43;"/><path d="M0 0 C3.98551787 3.8833251 6.63292906 7.14733561 6.89160156 12.81982422 C6.89097425 14.52324328 6.86872908 16.22675233 6.828125 17.9296875 C6.82246521 18.83123566 6.81680542 19.73278381 6.81097412 20.66165161 C6.78868555 23.52498763 6.73850389 26.38704589 6.6875 29.25 C6.66742525 31.19789852 6.64917619 33.14581677 6.6328125 35.09375 C6.58884547 39.8546547 6.51987063 44.61461114 6.4375 49.375 C1.1575 49.375 -4.1225 49.375 -9.5625 49.375 C-9.58828125 47.11140625 -9.6140625 44.8478125 -9.640625 42.515625 C-9.67906291 40.31790857 -9.72421707 38.12042539 -9.77001953 35.92285156 C-9.79820535 34.39822569 -9.81943189 32.87345434 -9.83349609 31.34863281 C-9.85496049 29.15354064 -9.90162169 26.96019289 -9.953125 24.765625 C-9.97407227 23.44594727 -9.99501953 22.12626953 -10.01660156 20.76660156 C-10.63862751 16.9020289 -11.45313004 15.67498793 -14.5625 13.375 C-16.82795836 12.99503682 -16.82795836 12.99503682 -19.125 13.4375 C-20.27162109 13.57865234 -20.27162109 13.57865234 -21.44140625 13.72265625 C-24.08275732 14.53500547 -24.92456444 15.13355433 -26.5625 17.375 C-26.8932063 19.88228032 -27.0507718 22.15637387 -27.07421875 24.66796875 C-27.09216995 25.37399734 -27.11012115 26.08002594 -27.12861633 26.80744934 C-27.18273178 29.05907241 -27.21661722 31.31048343 -27.25 33.5625 C-27.28317219 35.09052431 -27.31766177 36.61852063 -27.35351562 38.14648438 C-27.44093734 41.88935357 -27.50098807 45.63125647 -27.5625 49.375 C-32.8425 49.375 -38.1225 49.375 -43.5625 49.375 C-43.5625 32.875 -43.5625 16.375 -43.5625 -0.625 C-38.2825 -0.625 -33.0025 -0.625 -27.5625 -0.625 C-27.2325 1.025 -26.9025 2.675 -26.5625 4.375 C-25.840625 3.75625 -25.11875 3.1375 -24.375 2.5 C-17.37980601 -2.78525768 -7.98710966 -3.643243 0 0 Z " transform="translate(420.5625,185.625)" style="fill: #121D43;"/><path d="M0 0 C3.98551787 3.8833251 6.63292906 7.14733561 6.89160156 12.81982422 C6.89097425 14.52324328 6.86872908 16.22675233 6.828125 17.9296875 C6.82246521 18.83123566 6.81680542 19.73278381 6.81097412 20.66165161 C6.78868555 23.52498763 6.73850389 26.38704589 6.6875 29.25 C6.66742525 31.19789852 6.64917619 33.14581677 6.6328125 35.09375 C6.58884547 39.8546547 6.51987063 44.61461114 6.4375 49.375 C1.1575 49.375 -4.1225 49.375 -9.5625 49.375 C-9.58828125 47.11140625 -9.6140625 44.8478125 -9.640625 42.515625 C-9.67906291 40.31790857 -9.72421707 38.12042539 -9.77001953 35.92285156 C-9.79820535 34.39822569 -9.81943189 32.87345434 -9.83349609 31.34863281 C-9.85496049 29.15354064 -9.90162169 26.96019289 -9.953125 24.765625 C-9.97407227 23.44594727 -9.99501953 22.12626953 -10.01660156 20.76660156 C-10.63862751 16.9020289 -11.45313004 15.67498793 -14.5625 13.375 C-16.82795836 12.99503682 -16.82795836 12.99503682 -19.125 13.4375 C-20.27162109 13.57865234 -20.27162109 13.57865234 -21.44140625 13.72265625 C-24.08275732 14.53500547 -24.92456444 15.13355433 -26.5625 17.375 C-26.8932063 19.88228032 -27.0507718 22.15637387 -27.07421875 24.66796875 C-27.09216995 25.37399734 -27.11012115 26.08002594 -27.12861633 26.80744934 C-27.18273178 29.05907241 -27.21661722 31.31048343 -27.25 33.5625 C-27.28317219 35.09052431 -27.31766177 36.61852063 -27.35351562 38.14648438 C-27.44093734 41.88935357 -27.50098807 45.63125647 -27.5625 49.375 C-32.8425 49.375 -38.1225 49.375 -43.5625 49.375 C-43.5625 32.875 -43.5625 16.375 -43.5625 -0.625 C-38.2825 -0.625 -33.0025 -0.625 -27.5625 -0.625 C-27.2325 1.025 -26.9025 2.675 -26.5625 4.375 C-25.840625 3.75625 -25.11875 3.1375 -24.375 2.5 C-17.37980601 -2.78525768 -7.98710966 -3.643243 0 0 Z " transform="translate(2427.5625,80.625)" style="fill: #121D43;"/><path d="M0 0 C3.98551787 3.8833251 6.63292906 7.14733561 6.89160156 12.81982422 C6.89097425 14.52324328 6.86872908 16.22675233 6.828125 17.9296875 C6.82246521 18.83123566 6.81680542 19.73278381 6.81097412 20.66165161 C6.78868555 23.52498763 6.73850389 26.38704589 6.6875 29.25 C6.66742525 31.19789852 6.64917619 33.14581677 6.6328125 35.09375 C6.58884547 39.8546547 6.51987063 44.61461114 6.4375 49.375 C1.1575 49.375 -4.1225 49.375 -9.5625 49.375 C-9.58828125 47.11140625 -9.6140625 44.8478125 -9.640625 42.515625 C-9.67906291 40.31790857 -9.72421707 38.12042539 -9.77001953 35.92285156 C-9.79820535 34.39822569 -9.81943189 32.87345434 -9.83349609 31.34863281 C-9.85496049 29.15354064 -9.90162169 26.96019289 -9.953125 24.765625 C-9.97407227 23.44594727 -9.99501953 22.12626953 -10.01660156 20.76660156 C-10.63862751 16.9020289 -11.45313004 15.67498793 -14.5625 13.375 C-16.82795836 12.99503682 -16.82795836 12.99503682 -19.125 13.4375 C-20.27162109 13.57865234 -20.27162109 13.57865234 -21.44140625 13.72265625 C-24.08275732 14.53500547 -24.92456444 15.13355433 -26.5625 17.375 C-26.8932063 19.88228032 -27.0507718 22.15637387 -27.07421875 24.66796875 C-27.09216995 25.37399734 -27.11012115 26.08002594 -27.12861633 26.80744934 C-27.18273178 29.05907241 -27.21661722 31.31048343 -27.25 33.5625 C-27.28317219 35.09052431 -27.31766177 36.61852063 -27.35351562 38.14648438 C-27.44093734 41.88935357 -27.50098807 45.63125647 -27.5625 49.375 C-32.8425 49.375 -38.1225 49.375 -43.5625 49.375 C-43.5625 32.875 -43.5625 16.375 -43.5625 -0.625 C-38.2825 -0.625 -33.0025 -0.625 -27.5625 -0.625 C-27.2325 1.025 -26.9025 2.675 -26.5625 4.375 C-25.840625 3.75625 -25.11875 3.1375 -24.375 2.5 C-17.37980601 -2.78525768 -7.98710966 -3.643243 0 0 Z " transform="translate(2340.5625,80.625)" style="fill: #121D43;"/><path d="M0 0 C3.98551787 3.8833251 6.63292906 7.14733561 6.89160156 12.81982422 C6.89097425 14.52324328 6.86872908 16.22675233 6.828125 17.9296875 C6.82246521 18.83123566 6.81680542 19.73278381 6.81097412 20.66165161 C6.78868555 23.52498763 6.73850389 26.38704589 6.6875 29.25 C6.66742525 31.19789852 6.64917619 33.14581677 6.6328125 35.09375 C6.58884547 39.8546547 6.51987063 44.61461114 6.4375 49.375 C1.1575 49.375 -4.1225 49.375 -9.5625 49.375 C-9.58828125 47.11140625 -9.6140625 44.8478125 -9.640625 42.515625 C-9.67906291 40.31790857 -9.72421707 38.12042539 -9.77001953 35.92285156 C-9.79820535 34.39822569 -9.81943189 32.87345434 -9.83349609 31.34863281 C-9.85496049 29.15354064 -9.90162169 26.96019289 -9.953125 24.765625 C-9.97407227 23.44594727 -9.99501953 22.12626953 -10.01660156 20.76660156 C-10.63862751 16.9020289 -11.45313004 15.67498793 -14.5625 13.375 C-16.82795836 12.99503682 -16.82795836 12.99503682 -19.125 13.4375 C-20.27162109 13.57865234 -20.27162109 13.57865234 -21.44140625 13.72265625 C-24.08275732 14.53500547 -24.92456444 15.13355433 -26.5625 17.375 C-26.8932063 19.88228032 -27.0507718 22.15637387 -27.07421875 24.66796875 C-27.09216995 25.37399734 -27.11012115 26.08002594 -27.12861633 26.80744934 C-27.18273178 29.05907241 -27.21661722 31.31048343 -27.25 33.5625 C-27.28317219 35.09052431 -27.31766177 36.61852063 -27.35351562 38.14648438 C-27.44093734 41.88935357 -27.50098807 45.63125647 -27.5625 49.375 C-32.8425 49.375 -38.1225 49.375 -43.5625 49.375 C-43.5625 32.875 -43.5625 16.375 -43.5625 -0.625 C-38.2825 -0.625 -33.0025 -0.625 -27.5625 -0.625 C-27.2325 1.025 -26.9025 2.675 -26.5625 4.375 C-25.840625 3.75625 -25.11875 3.1375 -24.375 2.5 C-17.37980601 -2.78525768 -7.98710966 -3.643243 0 0 Z " transform="translate(1332.5625,80.625)" style="fill: #121D43;"/><path d="M0 0 C3.98551787 3.8833251 6.63292906 7.14733561 6.89160156 12.81982422 C6.89097425 14.52324328 6.86872908 16.22675233 6.828125 17.9296875 C6.82246521 18.83123566 6.81680542 19.73278381 6.81097412 20.66165161 C6.78868555 23.52498763 6.73850389 26.38704589 6.6875 29.25 C6.66742525 31.19789852 6.64917619 33.14581677 6.6328125 35.09375 C6.58884547 39.8546547 6.51987063 44.61461114 6.4375 49.375 C1.1575 49.375 -4.1225 49.375 -9.5625 49.375 C-9.58828125 47.11140625 -9.6140625 44.8478125 -9.640625 42.515625 C-9.67906291 40.31790857 -9.72421707 38.12042539 -9.77001953 35.92285156 C-9.79820535 34.39822569 -9.81943189 32.87345434 -9.83349609 31.34863281 C-9.85496049 29.15354064 -9.90162169 26.96019289 -9.953125 24.765625 C-9.97407227 23.44594727 -9.99501953 22.12626953 -10.01660156 20.76660156 C-10.63862751 16.9020289 -11.45313004 15.67498793 -14.5625 13.375 C-16.82795836 12.99503682 -16.82795836 12.99503682 -19.125 13.4375 C-20.27162109 13.57865234 -20.27162109 13.57865234 -21.44140625 13.72265625 C-24.08275732 14.53500547 -24.92456444 15.13355433 -26.5625 17.375 C-26.8932063 19.88228032 -27.0507718 22.15637387 -27.07421875 24.66796875 C-27.09216995 25.37399734 -27.11012115 26.08002594 -27.12861633 26.80744934 C-27.18273178 29.05907241 -27.21661722 31.31048343 -27.25 33.5625 C-27.28317219 35.09052431 -27.31766177 36.61852063 -27.35351562 38.14648438 C-27.44093734 41.88935357 -27.50098807 45.63125647 -27.5625 49.375 C-32.8425 49.375 -38.1225 49.375 -43.5625 49.375 C-43.5625 32.875 -43.5625 16.375 -43.5625 -0.625 C-38.2825 -0.625 -33.0025 -0.625 -27.5625 -0.625 C-27.2325 1.025 -26.9025 2.675 -26.5625 4.375 C-25.840625 3.75625 -25.11875 3.1375 -24.375 2.5 C-17.37980601 -2.78525768 -7.98710966 -3.643243 0 0 Z " transform="translate(1058.5625,80.625)" style="fill: #121D43;"/><path d="M0 0 C2.1953125 1.38671875 2.1953125 1.38671875 3.1953125 4.38671875 C1.98046875 6.6484375 1.98046875 6.6484375 0.2578125 9.07421875 C-0.30808594 9.88246094 -0.87398437 10.69070312 -1.45703125 11.5234375 C-2.12412109 12.44576172 -2.12412109 12.44576172 -2.8046875 13.38671875 C-3.33835937 13.09796875 -3.87203125 12.80921875 -4.421875 12.51171875 C-10.40121505 9.5323936 -15.17147025 8.88818885 -21.8046875 9.38671875 C-21.8046875 10.70671875 -21.8046875 12.02671875 -21.8046875 13.38671875 C-20.64710938 13.6290625 -19.48953125 13.87140625 -18.296875 14.12109375 C-16.75766604 14.45896889 -15.21861149 14.797548 -13.6796875 15.13671875 C-12.53886719 15.37261719 -12.53886719 15.37261719 -11.375 15.61328125 C-5.2953926 16.97595187 -1.05810729 19.31120053 3.5703125 23.57421875 C5.87194126 27.55780699 5.85480242 30.88947423 5.1953125 35.38671875 C3.03636605 41.10792683 0.30450157 44.25100156 -5.0546875 47.13671875 C-14.50459447 50.33379008 -25.48440711 49.23701872 -34.5703125 45.5546875 C-36.85300172 44.36146359 -38.79649688 42.99419243 -40.8046875 41.38671875 C-39.35424479 37.27713108 -37.29357998 33.9541313 -34.8046875 30.38671875 C-34.1653125 30.65484375 -33.5259375 30.92296875 -32.8671875 31.19921875 C-31.8565625 31.59109375 -30.8459375 31.98296875 -29.8046875 32.38671875 C-29.12664063 32.65097656 -28.44859375 32.91523438 -27.75 33.1875 C-22.52955082 35.09323491 -18.35600028 35.68951763 -12.8046875 35.38671875 C-12.1446875 33.73671875 -11.4846875 32.08671875 -10.8046875 30.38671875 C-11.9390625 30.22816406 -13.0734375 30.06960937 -14.2421875 29.90625 C-31.27517599 27.34054047 -31.27517599 27.34054047 -37.47265625 20.5625 C-39.96553007 16.49056241 -39.37337631 11.98975286 -38.8046875 7.38671875 C-36.63326055 2.0568526 -32.93812174 -0.3787853 -27.83984375 -2.69140625 C-18.15822019 -5.63202808 -9.06218468 -4.02361 0 0 Z " transform="translate(1039.8046875,187.61328125)" style="fill: #162146;"/><path d="M0 0 C2.1953125 1.38671875 2.1953125 1.38671875 3.1953125 4.38671875 C1.98046875 6.6484375 1.98046875 6.6484375 0.2578125 9.07421875 C-0.30808594 9.88246094 -0.87398437 10.69070312 -1.45703125 11.5234375 C-2.12412109 12.44576172 -2.12412109 12.44576172 -2.8046875 13.38671875 C-3.33835937 13.09796875 -3.87203125 12.80921875 -4.421875 12.51171875 C-10.40121505 9.5323936 -15.17147025 8.88818885 -21.8046875 9.38671875 C-21.8046875 10.70671875 -21.8046875 12.02671875 -21.8046875 13.38671875 C-20.64710937 13.6290625 -19.48953125 13.87140625 -18.296875 14.12109375 C-16.75766604 14.45896889 -15.21861149 14.797548 -13.6796875 15.13671875 C-12.53886719 15.37261719 -12.53886719 15.37261719 -11.375 15.61328125 C-5.2953926 16.97595187 -1.05810729 19.31120053 3.5703125 23.57421875 C5.87194126 27.55780699 5.85480242 30.88947423 5.1953125 35.38671875 C3.03636605 41.10792683 0.30450157 44.25100156 -5.0546875 47.13671875 C-14.50459447 50.33379008 -25.48440711 49.23701872 -34.5703125 45.5546875 C-36.85300172 44.36146359 -38.79649688 42.99419243 -40.8046875 41.38671875 C-39.35424479 37.27713108 -37.29357998 33.9541313 -34.8046875 30.38671875 C-34.1653125 30.65484375 -33.5259375 30.92296875 -32.8671875 31.19921875 C-31.8565625 31.59109375 -30.8459375 31.98296875 -29.8046875 32.38671875 C-29.12664062 32.65097656 -28.44859375 32.91523437 -27.75 33.1875 C-22.52955082 35.09323491 -18.35600028 35.68951763 -12.8046875 35.38671875 C-12.1446875 33.73671875 -11.4846875 32.08671875 -10.8046875 30.38671875 C-11.9390625 30.22816406 -13.0734375 30.06960937 -14.2421875 29.90625 C-31.27517599 27.34054047 -31.27517599 27.34054047 -37.47265625 20.5625 C-39.96553007 16.49056241 -39.37337631 11.98975286 -38.8046875 7.38671875 C-36.63326055 2.0568526 -32.93812174 -0.3787853 -27.83984375 -2.69140625 C-18.15822019 -5.63202808 -9.06218468 -4.02361 0 0 Z " transform="translate(1820.8046875,82.61328125)" style="fill: #162146;"/><path d="M0 0 C2.1953125 1.38671875 2.1953125 1.38671875 3.1953125 4.38671875 C1.98046875 6.6484375 1.98046875 6.6484375 0.2578125 9.07421875 C-0.30808594 9.88246094 -0.87398438 10.69070312 -1.45703125 11.5234375 C-2.12412109 12.44576172 -2.12412109 12.44576172 -2.8046875 13.38671875 C-3.33835937 13.09796875 -3.87203125 12.80921875 -4.421875 12.51171875 C-10.40121505 9.5323936 -15.17147025 8.88818885 -21.8046875 9.38671875 C-21.8046875 10.70671875 -21.8046875 12.02671875 -21.8046875 13.38671875 C-20.64710938 13.6290625 -19.48953125 13.87140625 -18.296875 14.12109375 C-16.75766604 14.45896889 -15.21861149 14.797548 -13.6796875 15.13671875 C-12.53886719 15.37261719 -12.53886719 15.37261719 -11.375 15.61328125 C-5.2953926 16.97595187 -1.05810729 19.31120053 3.5703125 23.57421875 C5.87194126 27.55780699 5.85480242 30.88947423 5.1953125 35.38671875 C3.03636605 41.10792683 0.30450157 44.25100156 -5.0546875 47.13671875 C-14.50459447 50.33379008 -25.48440711 49.23701872 -34.5703125 45.5546875 C-36.85300172 44.36146359 -38.79649688 42.99419243 -40.8046875 41.38671875 C-39.35424479 37.27713108 -37.29357998 33.9541313 -34.8046875 30.38671875 C-34.1653125 30.65484375 -33.5259375 30.92296875 -32.8671875 31.19921875 C-31.8565625 31.59109375 -30.8459375 31.98296875 -29.8046875 32.38671875 C-29.12664062 32.65097656 -28.44859375 32.91523437 -27.75 33.1875 C-22.52955082 35.09323491 -18.35600028 35.68951763 -12.8046875 35.38671875 C-12.1446875 33.73671875 -11.4846875 32.08671875 -10.8046875 30.38671875 C-11.9390625 30.22816406 -13.0734375 30.06960937 -14.2421875 29.90625 C-31.27517599 27.34054047 -31.27517599 27.34054047 -37.47265625 20.5625 C-39.96553007 16.49056241 -39.37337631 11.98975286 -38.8046875 7.38671875 C-36.63326055 2.0568526 -32.93812174 -0.3787853 -27.83984375 -2.69140625 C-18.15822019 -5.63202808 -9.06218468 -4.02361 0 0 Z " transform="translate(508.8046875,82.61328125)" style="fill: #162146;"/><path d="M0 0 C-1.875 7.625 -1.875 7.625 -3 11 C-4.11375 10.95875 -5.2275 10.9175 -6.375 10.875 C-10.04366025 10.58878141 -10.04366025 10.58878141 -12 13 C-12.64767793 15.57061311 -12.64767793 15.57061311 -13 18 C-9.7 18 -6.4 18 -3 18 C-3 22.62 -3 27.24 -3 32 C-6.3 32 -9.6 32 -13 32 C-13 43.88 -13 55.76 -13 68 C-18.28 68 -23.56 68 -29 68 C-29 56.12 -29 44.24 -29 32 C-31.64 32 -34.28 32 -37 32 C-37 27.38 -37 22.76 -37 18 C-34.36 18 -31.72 18 -29 18 C-29.103125 16.845 -29.20625 15.69 -29.3125 14.5 C-29.29407799 9.30499437 -27.35924642 5.87341679 -24 2 C-17.0851184 -3.6448013 -8.00561603 -3.6655751 0 0 Z " transform="translate(1169,167)" style="fill: #131E43;"/><path d="M0 0 C-1.875 7.625 -1.875 7.625 -3 11 C-4.11375 10.95875 -5.2275 10.9175 -6.375 10.875 C-10.04366025 10.58878141 -10.04366025 10.58878141 -12 13 C-12.64767793 15.57061311 -12.64767793 15.57061311 -13 18 C-9.7 18 -6.4 18 -3 18 C-3 22.62 -3 27.24 -3 32 C-6.3 32 -9.6 32 -13 32 C-13 43.88 -13 55.76 -13 68 C-18.28 68 -23.56 68 -29 68 C-29 56.12 -29 44.24 -29 32 C-31.64 32 -34.28 32 -37 32 C-37 27.38 -37 22.76 -37 18 C-34.36 18 -31.72 18 -29 18 C-29.103125 16.845 -29.20625 15.69 -29.3125 14.5 C-29.29407799 9.30499437 -27.35924642 5.87341679 -24 2 C-17.0851184 -3.6448013 -8.00561603 -3.6655751 0 0 Z " transform="translate(1538,62)" style="fill: #131E43;"/><path d="M0 0 C3.0625 2.5 3.0625 2.5 5 5 C5 8 5 8 3.35546875 9.82421875 C2.28232422 10.74654297 2.28232422 10.74654297 1.1875 11.6875 C0.47980469 12.31011719 -0.22789063 12.93273437 -0.95703125 13.57421875 C-3 15 -3 15 -6 15 C-6.7425 14.505 -7.485 14.01 -8.25 13.5 C-11.78300311 11.5729074 -14.02234635 11.57382282 -18 12 C-20.78901573 13.23956255 -22.44350587 14.28450754 -24.3125 16.6875 C-25.64223052 21.16022993 -25.38062222 25.40830706 -24.3125 29.875 C-22.5371368 32.74939757 -21.26511006 33.20186198 -18 34 C-11.93831462 34.6735206 -8.93056817 33.21996289 -4 30 C-3.51789063 30.49371094 -3.03578125 30.98742187 -2.5390625 31.49609375 C-1.90742187 32.13675781 -1.27578125 32.77742188 -0.625 33.4375 C0.00148438 34.07558594 0.62796875 34.71367187 1.2734375 35.37109375 C2.91723061 37.07882176 2.91723061 37.07882176 5 38 C4.7556403 41.29885597 3.77114107 42.22885893 1.375 44.625 C-5.71678238 50.03539735 -14.41368958 49.90835133 -23 49 C-30.29790094 46.87391775 -35.92330246 42.40458449 -40 36 C-43.02860305 28.79049711 -43.6386449 18.88667319 -41.125 11.390625 C-37.64723667 5.48757935 -31.65876225 -0.08454389 -25.20703125 -2.53125 C-17.01365139 -4.27143687 -7.49267023 -4.01619824 0 0 Z " transform="translate(1743,187)" style="fill: #152045;"/><path d="M0 0 C3.0625 2.5 3.0625 2.5 5 5 C5 8 5 8 3.35546875 9.82421875 C2.28232422 10.74654297 2.28232422 10.74654297 1.1875 11.6875 C0.47980469 12.31011719 -0.22789063 12.93273437 -0.95703125 13.57421875 C-3 15 -3 15 -6 15 C-6.7425 14.505 -7.485 14.01 -8.25 13.5 C-11.78300311 11.5729074 -14.02234635 11.57382282 -18 12 C-20.78901573 13.23956255 -22.44350587 14.28450754 -24.3125 16.6875 C-25.64223052 21.16022993 -25.38062222 25.40830706 -24.3125 29.875 C-22.5371368 32.74939757 -21.26511006 33.20186198 -18 34 C-11.93831462 34.6735206 -8.93056817 33.21996289 -4 30 C-3.51789063 30.49371094 -3.03578125 30.98742187 -2.5390625 31.49609375 C-1.90742187 32.13675781 -1.27578125 32.77742188 -0.625 33.4375 C0.00148438 34.07558594 0.62796875 34.71367187 1.2734375 35.37109375 C2.91723061 37.07882176 2.91723061 37.07882176 5 38 C4.7556403 41.29885597 3.77114107 42.22885893 1.375 44.625 C-5.71678238 50.03539735 -14.41368958 49.90835133 -23 49 C-30.29790094 46.87391775 -35.92330246 42.40458449 -40 36 C-43.02860305 28.79049711 -43.6386449 18.88667319 -41.125 11.390625 C-37.64723667 5.48757935 -31.65876225 -0.08454389 -25.20703125 -2.53125 C-17.01365139 -4.27143687 -7.49267023 -4.01619824 0 0 Z " transform="translate(1548,187)" style="fill: #152045;"/><path d="M0 0 C3.0625 2.5 3.0625 2.5 5 5 C5 8 5 8 3.35546875 9.82421875 C2.28232422 10.74654297 2.28232422 10.74654297 1.1875 11.6875 C0.47980469 12.31011719 -0.22789063 12.93273437 -0.95703125 13.57421875 C-3 15 -3 15 -6 15 C-6.7425 14.505 -7.485 14.01 -8.25 13.5 C-11.78300311 11.5729074 -14.02234635 11.57382282 -18 12 C-20.78901573 13.23956255 -22.44350587 14.28450754 -24.3125 16.6875 C-25.64223052 21.16022993 -25.38062222 25.40830706 -24.3125 29.875 C-22.5371368 32.74939757 -21.26511006 33.20186198 -18 34 C-11.93831462 34.6735206 -8.93056817 33.21996289 -4 30 C-3.51789063 30.49371094 -3.03578125 30.98742187 -2.5390625 31.49609375 C-1.90742187 32.13675781 -1.27578125 32.77742188 -0.625 33.4375 C0.00148438 34.07558594 0.62796875 34.71367188 1.2734375 35.37109375 C2.91723061 37.07882176 2.91723061 37.07882176 5 38 C4.7556403 41.29885597 3.77114107 42.22885893 1.375 44.625 C-5.71678238 50.03539735 -14.41368958 49.90835133 -23 49 C-30.29790094 46.87391775 -35.92330246 42.40458449 -40 36 C-43.02860305 28.79049711 -43.6386449 18.88667319 -41.125 11.390625 C-37.64723667 5.48757935 -31.65876225 -0.08454389 -25.20703125 -2.53125 C-17.01365139 -4.27143687 -7.49267023 -4.01619824 0 0 Z " transform="translate(2023,82)" style="fill: #152045;"/><path d="M0 0 C3.0625 2.5 3.0625 2.5 5 5 C5 8 5 8 3.35546875 9.82421875 C2.28232422 10.74654297 2.28232422 10.74654297 1.1875 11.6875 C0.47980469 12.31011719 -0.22789062 12.93273437 -0.95703125 13.57421875 C-3 15 -3 15 -6 15 C-6.7425 14.505 -7.485 14.01 -8.25 13.5 C-11.78300311 11.5729074 -14.02234635 11.57382282 -18 12 C-20.78901573 13.23956255 -22.44350587 14.28450754 -24.3125 16.6875 C-25.64223052 21.16022993 -25.38062222 25.40830706 -24.3125 29.875 C-22.5371368 32.74939757 -21.26511006 33.20186198 -18 34 C-11.93831462 34.6735206 -8.93056817 33.21996289 -4 30 C-3.51789062 30.49371094 -3.03578125 30.98742187 -2.5390625 31.49609375 C-1.90742187 32.13675781 -1.27578125 32.77742188 -0.625 33.4375 C0.00148438 34.07558594 0.62796875 34.71367188 1.2734375 35.37109375 C2.91723061 37.07882176 2.91723061 37.07882176 5 38 C4.7556403 41.29885597 3.77114107 42.22885893 1.375 44.625 C-5.71678238 50.03539735 -14.41368958 49.90835133 -23 49 C-30.29790094 46.87391775 -35.92330246 42.40458449 -40 36 C-43.02860305 28.79049711 -43.6386449 18.88667319 -41.125 11.390625 C-37.64723667 5.48757935 -31.65876225 -0.08454389 -25.20703125 -2.53125 C-17.01365139 -4.27143687 -7.49267023 -4.01619824 0 0 Z " transform="translate(710,82)" style="fill: #152045;"/><path d="M0 0 C5.28 0 10.56 0 16 0 C16 4.62 16 9.24 16 14 C19.3 14 22.6 14 26 14 C26 18.62 26 23.24 26 28 C22.7 28 19.4 28 16 28 C16.33 35.26 16.66 42.52 17 50 C19.64 50 22.28 50 25 50 C25.99 53.96 26.98 57.92 28 62 C22.18697704 65.98607289 15.84292513 65.78354105 9 65 C4.36375979 62.84175025 2.24142094 60.5303787 0 56 C-0.34057617 52.86206055 -0.34057617 52.86206055 -0.29296875 49.38671875 C-0.28330078 48.13955078 -0.27363281 46.89238281 -0.26367188 45.60742188 C-0.23853516 44.31384766 -0.21339844 43.02027344 -0.1875 41.6875 C-0.16719727 39.71813477 -0.16719727 39.71813477 -0.14648438 37.70898438 C-0.11117443 34.47223923 -0.0618528 31.23632895 0 28 C-2.97 28 -5.94 28 -9 28 C-9 23.38 -9 18.76 -9 14 C-6.03 14 -3.06 14 0 14 C0 9.38 0 4.76 0 0 Z " transform="translate(1332,171)" style="fill: #152045;"/><path d="M0 0 C5.28 0 10.56 0 16 0 C16 4.62 16 9.24 16 14 C19.3 14 22.6 14 26 14 C26 18.62 26 23.24 26 28 C22.7 28 19.4 28 16 28 C16.33 35.26 16.66 42.52 17 50 C19.64 50 22.28 50 25 50 C25.99 53.96 26.98 57.92 28 62 C22.18697704 65.98607289 15.84292513 65.78354105 9 65 C4.36375979 62.84175025 2.24142094 60.5303787 0 56 C-0.34057617 52.86206055 -0.34057617 52.86206055 -0.29296875 49.38671875 C-0.28330078 48.13955078 -0.27363281 46.89238281 -0.26367188 45.60742188 C-0.23853516 44.31384766 -0.21339844 43.02027344 -0.1875 41.6875 C-0.16719727 39.71813477 -0.16719727 39.71813477 -0.14648438 37.70898438 C-0.11117443 34.47223923 -0.0618528 31.23632895 0 28 C-2.97 28 -5.94 28 -9 28 C-9 23.38 -9 18.76 -9 14 C-6.03 14 -3.06 14 0 14 C0 9.38 0 4.76 0 0 Z " transform="translate(823,171)" style="fill: #152045;"/><path d="M0 0 C5.28 0 10.56 0 16 0 C16 4.62 16 9.24 16 14 C19.3 14 22.6 14 26 14 C26 18.62 26 23.24 26 28 C22.7 28 19.4 28 16 28 C16.33 35.26 16.66 42.52 17 50 C19.64 50 22.28 50 25 50 C25.99 53.96 26.98 57.92 28 62 C22.18697704 65.98607289 15.84292513 65.78354105 9 65 C4.36375979 62.84175025 2.24142094 60.5303787 0 56 C-0.34057617 52.86206055 -0.34057617 52.86206055 -0.29296875 49.38671875 C-0.28330078 48.13955078 -0.27363281 46.89238281 -0.26367188 45.60742188 C-0.23853516 44.31384766 -0.21339844 43.02027344 -0.1875 41.6875 C-0.16719727 39.71813477 -0.16719727 39.71813477 -0.14648438 37.70898438 C-0.11117443 34.47223923 -0.0618528 31.23632895 0 28 C-2.97 28 -5.94 28 -9 28 C-9 23.38 -9 18.76 -9 14 C-6.03 14 -3.06 14 0 14 C0 9.38 0 4.76 0 0 Z " transform="translate(1353,66)" style="fill: #152045;"/><path d="M0 0 C5.94 0 11.88 0 18 0 C18 22.77 18 45.54 18 69 C12.06 69 6.12 69 0 69 C0 46.23 0 23.46 0 0 Z " transform="translate(809,61)" style="fill: #121D43;"/><path d="M0 0 C5.28 0 10.56 0 16 0 C16 22.77 16 45.54 16 69 C10.72 69 5.44 69 0 69 C0 46.23 0 23.46 0 0 Z " transform="translate(932,61)" style="fill: #121D43;"/><path d="M0 0 C0 4.95 0 9.9 0 15 C-3.02734375 15.45572917 -6.0546875 15.91145833 -9.08203125 16.3671875 C-12.17321793 16.85132338 -12.17321793 16.85132338 -15 19 C-15.33814748 21.47491114 -15.48872339 23.71351688 -15.51171875 26.1953125 C-15.52966995 26.90275604 -15.54762115 27.61019958 -15.56611633 28.33908081 C-15.62034442 30.60099303 -15.65415316 32.86269284 -15.6875 35.125 C-15.72066226 36.65758173 -15.7551509 38.19013538 -15.79101562 39.72265625 C-15.87857973 43.48180344 -15.93853393 47.23997232 -16 51 C-21.28 51 -26.56 51 -32 51 C-32 34.5 -32 18 -32 1 C-26.72 1 -21.44 1 -16 1 C-15.67 2.65 -15.34 4.3 -15 6 C-14.2575 5.38125 -13.515 4.7625 -12.75 4.125 C-7.86428875 0.34967767 -6.55442713 0 0 0 Z " transform="translate(2208,79)" style="fill: #131E44;"/><path d="M0 0 C0 4.95 0 9.9 0 15 C-3.02734375 15.45572917 -6.0546875 15.91145833 -9.08203125 16.3671875 C-12.17321793 16.85132338 -12.17321793 16.85132338 -15 19 C-15.33814748 21.47491114 -15.48872339 23.71351688 -15.51171875 26.1953125 C-15.52966995 26.90275604 -15.54762115 27.61019958 -15.56611633 28.33908081 C-15.62034442 30.60099303 -15.65415316 32.86269284 -15.6875 35.125 C-15.72066226 36.65758173 -15.7551509 38.19013538 -15.79101562 39.72265625 C-15.87857973 43.48180344 -15.93853393 47.23997232 -16 51 C-21.28 51 -26.56 51 -32 51 C-32 34.5 -32 18 -32 1 C-26.72 1 -21.44 1 -16 1 C-15.67 2.65 -15.34 4.3 -15 6 C-14.2575 5.38125 -13.515 4.7625 -12.75 4.125 C-7.86428875 0.34967767 -6.55442713 0 0 0 Z " transform="translate(1978,79)" style="fill: #131E44;"/><path d="M0 0 C0 4.95 0 9.9 0 15 C-3.02734375 15.45572917 -6.0546875 15.91145833 -9.08203125 16.3671875 C-12.17321793 16.85132338 -12.17321793 16.85132338 -15 19 C-15.33814748 21.47491114 -15.48872339 23.71351688 -15.51171875 26.1953125 C-15.52966995 26.90275604 -15.54762115 27.61019958 -15.56611633 28.33908081 C-15.62034442 30.60099303 -15.65415316 32.86269284 -15.6875 35.125 C-15.72066226 36.65758173 -15.7551509 38.19013538 -15.79101562 39.72265625 C-15.87857973 43.48180344 -15.93853393 47.23997232 -16 51 C-21.28 51 -26.56 51 -32 51 C-32 34.5 -32 18 -32 1 C-26.72 1 -21.44 1 -16 1 C-15.67 2.65 -15.34 4.3 -15 6 C-14.2575 5.38125 -13.515 4.7625 -12.75 4.125 C-7.86428875 0.34967767 -6.55442713 0 0 0 Z " transform="translate(1632,79)" style="fill: #131E44;"/><path d="M0 0 C0 4.95 0 9.9 0 15 C-3.02734375 15.45572917 -6.0546875 15.91145833 -9.08203125 16.3671875 C-12.17321793 16.85132338 -12.17321793 16.85132338 -15 19 C-15.33814748 21.47491114 -15.48872339 23.71351688 -15.51171875 26.1953125 C-15.52966995 26.90275604 -15.54762115 27.61019958 -15.56611633 28.33908081 C-15.62034442 30.60099303 -15.65415316 32.86269284 -15.6875 35.125 C-15.72066226 36.65758173 -15.7551509 38.19013538 -15.79101562 39.72265625 C-15.87857973 43.48180344 -15.93853393 47.23997232 -16 51 C-21.28 51 -26.56 51 -32 51 C-32 34.5 -32 18 -32 1 C-26.72 1 -21.44 1 -16 1 C-15.67 2.65 -15.34 4.3 -15 6 C-14.2575 5.38125 -13.515 4.7625 -12.75 4.125 C-7.86428875 0.34967767 -6.55442713 0 0 0 Z " transform="translate(1418,79)" style="fill: #131E44;"/><path d="M0 0 C0 4.95 0 9.9 0 15 C-3.02734375 15.45572917 -6.0546875 15.91145833 -9.08203125 16.3671875 C-12.17321793 16.85132338 -12.17321793 16.85132338 -15 19 C-15.33814748 21.47491114 -15.48872339 23.71351688 -15.51171875 26.1953125 C-15.52966995 26.90275604 -15.54762115 27.61019958 -15.56611633 28.33908081 C-15.62034442 30.60099303 -15.65415316 32.86269284 -15.6875 35.125 C-15.72066226 36.65758173 -15.7551509 38.19013538 -15.79101562 39.72265625 C-15.87857973 43.48180344 -15.93853393 47.23997232 -16 51 C-21.28 51 -26.56 51 -32 51 C-32 34.5 -32 18 -32 1 C-26.72 1 -21.44 1 -16 1 C-15.67 2.65 -15.34 4.3 -15 6 C-14.2575 5.38125 -13.515 4.7625 -12.75 4.125 C-7.86428875 0.34967767 -6.55442713 0 0 0 Z " transform="translate(870,79)" style="fill: #131E44;"/><path d="M0 0 C0 4.95 0 9.9 0 15 C-3.02734375 15.45572917 -6.0546875 15.91145833 -9.08203125 16.3671875 C-12.17321793 16.85132338 -12.17321793 16.85132338 -15 19 C-15.33814748 21.47491114 -15.48872339 23.71351688 -15.51171875 26.1953125 C-15.52966995 26.90275604 -15.54762115 27.61019958 -15.56611633 28.33908081 C-15.62034442 30.60099303 -15.65415316 32.86269284 -15.6875 35.125 C-15.72066226 36.65758173 -15.7551509 38.19013538 -15.79101562 39.72265625 C-15.87857973 43.48180344 -15.93853393 47.23997232 -16 51 C-21.28 51 -26.56 51 -32 51 C-32 34.5 -32 18 -32 1 C-26.72 1 -21.44 1 -16 1 C-15.67 2.65 -15.34 4.3 -15 6 C-14.2575 5.38125 -13.515 4.7625 -12.75 4.125 C-7.86428875 0.34967767 -6.55442713 0 0 0 Z " transform="translate(665,79)" style="fill: #131E44;"/><path d="M0 0 C21 0 21 0 26.8125 5.8125 C30.46379729 11.13296177 32.13855801 16.53252098 31 23 C28.66648205 29.07916478 25.76776952 32.99072895 20 36 C13.66754392 38.11081869 6.6749948 37 0 37 C0 24.79 0 12.58 0 0 Z " transform="translate(1216,182)" style="fill: #FCFCFD;"/><path d="M0 0 C5.28 0 10.56 0 16 0 C16 16.5 16 33 16 50 C10.72 50 5.44 50 0 50 C0 33.5 0 17 0 0 Z " transform="translate(1560,185)" style="fill: #121D43;"/><path d="M0 0 C5.28 0 10.56 0 16 0 C16 16.5 16 33 16 50 C10.72 50 5.44 50 0 50 C0 33.5 0 17 0 0 Z " transform="translate(857,185)" style="fill: #121D43;"/><path d="M0 0 C5.28 0 10.56 0 16 0 C16 16.5 16 33 16 50 C10.72 50 5.44 50 0 50 C0 33.5 0 17 0 0 Z " transform="translate(351,185)" style="fill: #121D43;"/><path d="M0 0 C5.28 0 10.56 0 16 0 C16 16.5 16 33 16 50 C10.72 50 5.44 50 0 50 C0 33.5 0 17 0 0 Z " transform="translate(2357,80)" style="fill: #121D43;"/><path d="M0 0 C5.28 0 10.56 0 16 0 C16 16.5 16 33 16 50 C10.72 50 5.44 50 0 50 C0 33.5 0 17 0 0 Z " transform="translate(2270,80)" style="fill: #121D43;"/><path d="M0 0 C3.9003268 3.19117647 3.9003268 3.19117647 4.75 6.25 C5.21846274 11.09078166 5.25094246 13.28389668 3 17.625 C-0.00299106 21.12848957 -1.5954492 22.03418903 -6.125 22.625 C-10.68500643 22.07779923 -13.78459148 20.11506539 -16.625 16.5 C-18.07399408 11.28362133 -17.95053657 7.60103481 -15.5 2.875 C-10.98756246 -2.38951047 -6.25322615 -3.36712177 0 0 Z " transform="translate(1108.25,199.75)" style="fill: #F6F6F8;"/><path d="M0 0 C3.9003268 3.19117647 3.9003268 3.19117647 4.75 6.25 C5.21846274 11.09078166 5.25094246 13.28389668 3 17.625 C-0.00299106 21.12848957 -1.5954492 22.03418903 -6.125 22.625 C-10.68500643 22.07779923 -13.78459148 20.11506539 -16.625 16.5 C-18.07399408 11.28362133 -17.95053657 7.60103481 -15.5 2.875 C-10.98756246 -2.38951047 -6.25322615 -3.36712177 0 0 Z " transform="translate(914.25,199.75)" style="fill: #F6F6F8;"/><path d="M0 0 C2.6875 1.5625 2.6875 1.5625 3.6875 2.5625 C3.92179886 5.18724034 4.05828338 7.74544482 4.125 10.375 C4.17076172 11.10009766 4.21652344 11.82519531 4.26367188 12.57226562 C4.30859375 14.70703125 4.30859375 14.70703125 3.6875 18.5625 C0.43629695 21.43386848 -1.52005359 22.44929337 -5.8125 23.0625 C-10.57180086 22.38259988 -13.69946372 20.61545527 -16.6875 16.8125 C-18.13649408 11.59612133 -18.01303657 7.91353481 -15.5625 3.1875 C-11.03472644 -2.09490249 -6.43812699 -2.79390417 0 0 Z " transform="translate(734.3125,199.4375)" style="fill: #F7F7F8;"/><path d="M0 0 C3.9003268 3.19117647 3.9003268 3.19117647 4.75 6.25 C5.21846274 11.09078166 5.25094246 13.28389668 3 17.625 C-0.00299106 21.12848957 -1.5954492 22.03418903 -6.125 22.625 C-10.68500643 22.07779923 -13.78459148 20.11506539 -16.625 16.5 C-18.07399408 11.28362133 -17.95053657 7.60103481 -15.5 2.875 C-10.98756246 -2.38951047 -6.25322615 -3.36712177 0 0 Z " transform="translate(553.25,199.75)" style="fill: #F6F6F8;"/><path d="M0 0 C3.9003268 3.19117647 3.9003268 3.19117647 4.75 6.25 C5.21846274 11.09078166 5.25094246 13.28389668 3 17.625 C-0.00299106 21.12848957 -1.5954492 22.03418903 -6.125 22.625 C-10.68500643 22.07779923 -13.78459148 20.11506539 -16.625 16.5 C-18.07399408 11.28362133 -17.95053657 7.60103481 -15.5 2.875 C-10.98756246 -2.38951047 -6.25322615 -3.36712177 0 0 Z " transform="translate(1571.25,94.75)" style="fill: #F6F6F8;"/><path d="M0 0 C2.6875 1.5625 2.6875 1.5625 3.6875 2.5625 C3.92179886 5.18724034 4.05828338 7.74544482 4.125 10.375 C4.17076172 11.10009766 4.21652344 11.82519531 4.26367188 12.57226562 C4.30859375 14.70703125 4.30859375 14.70703125 3.6875 18.5625 C0.43629695 21.43386848 -1.52005359 22.44929337 -5.8125 23.0625 C-10.57180086 22.38259988 -13.69946372 20.61545527 -16.6875 16.8125 C-18.13649408 11.59612133 -18.01303657 7.91353481 -15.5625 3.1875 C-11.03472644 -2.09490249 -6.43812699 -2.79390417 0 0 Z " transform="translate(1106.3125,94.4375)" style="fill: #F7F7F8;"/><path d="M0 0 C2.6875 1.5625 2.6875 1.5625 3.6875 2.5625 C4.16937534 7.2775587 4.25344612 11.85360854 3.6875 16.5625 C0.68934931 20.0103733 -1.90540469 20.74361675 -6.3125 21.125 C-10.9736261 20.90133752 -13.12280594 18.82999147 -16.3125 15.5625 C-17.91556924 12.35636153 -17.79990461 9.04110003 -17.3125 5.5625 C-13.10102347 -1.35635429 -7.51556581 -3.26147195 0 0 Z " transform="translate(2475.3125,94.4375)" style="fill: #F8F8F9;"/><path d="M0 0 C2.72977064 -0.08126109 5.4571017 -0.14061663 8.1875 -0.1875 C9.34088867 -0.22520508 9.34088867 -0.22520508 10.51757812 -0.26367188 C15.14682507 -0.32327591 18.30434842 -0.12268235 22 3 C23.0625 6.4375 23.0625 6.4375 23 10 C21.15863826 12.41281883 19.69698174 13.65150913 17 15 C14.11629667 15.07194869 11.25760336 15.09291708 8.375 15.0625 C7.57320312 15.05798828 6.77140625 15.05347656 5.9453125 15.04882812 C3.96350994 15.03703168 1.98174567 15.01909605 0 15 C0 10.05 0 5.1 0 0 Z " transform="translate(1682,76)" style="fill: #F8F9FA;"/><path d="M0 0 C2.72977064 -0.08126109 5.4571017 -0.14061663 8.1875 -0.1875 C9.34088867 -0.22520508 9.34088867 -0.22520508 10.51757812 -0.26367188 C15.14682507 -0.32327591 18.30434842 -0.12268235 22 3 C23.0625 6.4375 23.0625 6.4375 23 10 C21.15863826 12.41281883 19.69698174 13.65150913 17 15 C14.11629667 15.07194869 11.25760336 15.09291708 8.375 15.0625 C7.57320313 15.05798828 6.77140625 15.05347656 5.9453125 15.04882812 C3.96350994 15.03703168 1.98174567 15.01909605 0 15 C0 10.05 0 5.1 0 0 Z " transform="translate(369,76)" style="fill: #F8F9FA;"/><path d="M0 0 C3.5060303 0.86943897 4.94966563 2.56083702 6.9375 5.48046875 C7.62901325 9.78321784 7.45307405 11.68992187 5.0625 15.35546875 C2.3501761 18.06779265 1.47508847 18.41960968 -2.375 18.85546875 C-6.0625 18.48046875 -6.0625 18.48046875 -9 16.48046875 C-11.29297397 13.14523389 -11.82423735 11.3803982 -11.5390625 7.41796875 C-10.07434113 1.46303597 -5.59166036 -0.39183984 0 0 Z " transform="translate(1570.0625,159.51953125)" style="fill: #162146;"/><path d="M0 0 C3.5060303 0.86943897 4.94966563 2.56083702 6.9375 5.48046875 C7.62901325 9.78321784 7.45307405 11.68992187 5.0625 15.35546875 C2.3501761 18.06779265 1.47508847 18.41960968 -2.375 18.85546875 C-6.0625 18.48046875 -6.0625 18.48046875 -9 16.48046875 C-11.29297397 13.14523389 -11.82423735 11.3803982 -11.5390625 7.41796875 C-10.07434113 1.46303597 -5.59166036 -0.39183984 0 0 Z " transform="translate(867.0625,159.51953125)" style="fill: #162146;"/><path d="M0 0 C3.5060303 0.86943897 4.94966563 2.56083702 6.9375 5.48046875 C7.62901325 9.78321784 7.45307405 11.68992187 5.0625 15.35546875 C2.3501761 18.06779265 1.47508847 18.41960968 -2.375 18.85546875 C-6.0625 18.48046875 -6.0625 18.48046875 -9 16.48046875 C-11.29297397 13.14523389 -11.82423735 11.3803982 -11.5390625 7.41796875 C-10.07434113 1.46303597 -5.59166036 -0.39183984 0 0 Z " transform="translate(361.0625,159.51953125)" style="fill: #162146;"/><path d="M0 0 C3.5060303 0.86943897 4.94966563 2.56083702 6.9375 5.48046875 C7.62901325 9.78321784 7.45307405 11.68992187 5.0625 15.35546875 C2.3501761 18.06779265 1.47508847 18.41960968 -2.375 18.85546875 C-6.0625 18.48046875 -6.0625 18.48046875 -9 16.48046875 C-11.29297397 13.14523389 -11.82423735 11.3803982 -11.5390625 7.41796875 C-10.07434113 1.46303597 -5.59166036 -0.39183984 0 0 Z " transform="translate(2367.0625,54.51953125)" style="fill: #162146;"/><path d="M0 0 C3.5060303 0.86943897 4.94966563 2.56083702 6.9375 5.48046875 C7.62901325 9.78321784 7.45307405 11.68992187 5.0625 15.35546875 C2.3501761 18.06779265 1.47508847 18.41960968 -2.375 18.85546875 C-6.0625 18.48046875 -6.0625 18.48046875 -9 16.48046875 C-11.29297397 13.14523389 -11.82423735 11.3803982 -11.5390625 7.41796875 C-10.07434113 1.46303597 -5.59166036 -0.39183984 0 0 Z " transform="translate(2280.0625,54.51953125)" style="fill: #162146;"/><path d="M0 0 C3 1.1875 3 1.1875 5 3 C5.6875 5.4375 5.6875 5.4375 5 8 C2.01860478 10.62646721 -0.132218 11.85832131 -4.0625 12.5 C-7.6706779 11.88584206 -9.36578346 10.47926262 -12 8 C-11.6875 5.125 -11.6875 5.125 -11 2 C-7.28435556 -0.47709629 -4.30490456 -0.53601925 0 0 Z " transform="translate(1390,214)" style="fill: #F3F3F5;"/><path d="M0 0 C3 1.1875 3 1.1875 5 3 C5.6875 5.4375 5.6875 5.4375 5 8 C2.01860478 10.62646721 -0.132218 11.85832131 -4.0625 12.5 C-7.6706779 11.88584206 -9.36578346 10.47926262 -12 8 C-11.6875 5.125 -11.6875 5.125 -11 2 C-7.28435556 -0.47709629 -4.30490456 -0.53601925 0 0 Z " transform="translate(1298,214)" style="fill: #F3F3F5;"/><path d="M0 0 C3 1.1875 3 1.1875 5 3 C5.6875 5.4375 5.6875 5.4375 5 8 C2.01860478 10.62646721 -0.132218 11.85832131 -4.0625 12.5 C-7.6706779 11.88584206 -9.36578346 10.47926262 -12 8 C-11.6875 5.125 -11.6875 5.125 -11 2 C-7.28435556 -0.47709629 -4.30490456 -0.53601925 0 0 Z " transform="translate(789,214)" style="fill: #F3F3F5;"/><path d="M0 0 C3 1.1875 3 1.1875 5 3 C5.6875 5.4375 5.6875 5.4375 5 8 C2.01860478 10.62646721 -0.132218 11.85832131 -4.0625 12.5 C-7.6706779 11.88584206 -9.36578346 10.47926262 -12 8 C-11.6875 5.125 -11.6875 5.125 -11 2 C-7.28435556 -0.47709629 -4.30490456 -0.53601925 0 0 Z " transform="translate(2239,109)" style="fill: #F3F3F5;"/><path d="M0 0 C3 1.1875 3 1.1875 5 3 C5.6875 5.4375 5.6875 5.4375 5 8 C2.01860478 10.62646721 -0.132218 11.85832131 -4.0625 12.5 C-7.6706779 11.88584206 -9.36578346 10.47926262 -12 8 C-11.6875 5.125 -11.6875 5.125 -11 2 C-7.28435556 -0.47709629 -4.30490456 -0.53601925 0 0 Z " transform="translate(1915,109)" style="fill: #F3F3F5;"/><path d="M0 0 C3 1.1875 3 1.1875 5 3 C5.6875 5.4375 5.6875 5.4375 5 8 C2.01860478 10.62646721 -0.132218 11.85832131 -4.0625 12.5 C-7.6706779 11.88584206 -9.36578346 10.47926262 -12 8 C-11.6875 5.125 -11.6875 5.125 -11 2 C-7.28435556 -0.47709629 -4.30490456 -0.53601925 0 0 Z " transform="translate(984,109)" style="fill: #F3F3F5;"/><path d="M0 0 C3 1.1875 3 1.1875 5 3 C5.6875 5.4375 5.6875 5.4375 5 8 C2.01860478 10.62646721 -0.132218 11.85832131 -4.0625 12.5 C-7.6706779 11.88584206 -9.36578346 10.47926262 -12 8 C-11.6875 5.125 -11.6875 5.125 -11 2 C-7.28435556 -0.47709629 -4.30490456 -0.53601925 0 0 Z " transform="translate(602,109)" style="fill: #F3F3F5;"/><path d="M0 0 C3.125 1.8125 3.125 1.8125 5 4 C5 4.99 5 5.98 5 7 C-1.27 7 -7.54 7 -14 7 C-12.01222261 -0.95110955 -7.4546806 -1.09208697 0 0 Z " transform="translate(1783,197)" style="fill: #FAFBFB;"/><path d="M0 0 C3.125 1.8125 3.125 1.8125 5 4 C5 4.99 5 5.98 5 7 C-1.27 7 -7.54 7 -14 7 C-12.01222261 -0.95110955 -7.4546806 -1.09208697 0 0 Z " transform="translate(1615,197)" style="fill: #FAFBFB;"/><path d="M0 0 C3.125 1.8125 3.125 1.8125 5 4 C5 4.99 5 5.98 5 7 C-1.27 7 -7.54 7 -14 7 C-12.01222261 -0.95110955 -7.4546806 -1.09208697 0 0 Z " transform="translate(1862,92)" style="fill: #FAFBFB;"/><path d="M0 0 C3.125 1.8125 3.125 1.8125 5 4 C5 4.99 5 5.98 5 7 C-1.27 7 -7.54 7 -14 7 C-12.01222261 -0.95110955 -7.4546806 -1.09208697 0 0 Z " transform="translate(1756,92)" style="fill: #FAFBFB;"/><path d="M0 0 C3.125 1.8125 3.125 1.8125 5 4 C5 4.99 5 5.98 5 7 C-1.27 7 -7.54 7 -14 7 C-12.01222261 -0.95110955 -7.4546806 -1.09208697 0 0 Z " transform="translate(1452,92)" style="fill: #FAFBFB;"/><path d="M0 0 C3.125 1.8125 3.125 1.8125 5 4 C5 4.99 5 5.98 5 7 C-1.27 7 -7.54 7 -14 7 C-12.01222261 -0.95110955 -7.4546806 -1.09208697 0 0 Z " transform="translate(1261,92)" style="fill: #FAFBFB;"/><path d="M0 0 C3.125 1.8125 3.125 1.8125 5 4 C5 4.99 5 5.98 5 7 C-1.27 7 -7.54 7 -14 7 C-12.01222261 -0.95110955 -7.4546806 -1.09208697 0 0 Z " transform="translate(904,92)" style="fill: #FAFBFB;"/><path d="M0 0 C3.125 1.8125 3.125 1.8125 5 4 C5 4.99 5 5.98 5 7 C-1.27 7 -7.54 7 -14 7 C-12.01222261 -0.95110955 -7.4546806 -1.09208697 0 0 Z " transform="translate(549,92)" style="fill: #FAFBFB;"/><path d="M0 0 C3.125 1.8125 3.125 1.8125 5 4 C5 4.99 5 5.98 5 7 C-1.27 7 -7.54 7 -14 7 C-12.01222261 -0.95110955 -7.4546806 -1.09208697 0 0 Z " transform="translate(443,92)" style="fill: #FAFBFB;"/></svg>